<?xml version="1.0"?>
<svg fill="#595959" xmlns="http://www.w3.org/2000/svg" id="Icons" viewBox="0 0 60 60" width="512" height="512"><path d="M57,0H3A3,3,0,0,0,0,3V47a3,3,0,0,0,3,3H22.9c-.589,3.228-3.921,3.982-4.1,4.02A3.994,3.994,0,0,0,15,58a2,2,0,0,0,2,2H43a2,2,0,0,0,2-2,4,4,0,0,0-3.8-3.98h0c-.157-.032-3.514-.753-4.1-4.02H57a3,3,0,0,0,3-3V3A3,3,0,0,0,57,0ZM3,2H57a1,1,0,0,1,1,1V42H2V3A1,1,0,0,1,3,2ZM43,58H17a2,2,0,0,1,2-2H41A2.005,2.005,0,0,1,43,58Zm-5.918-4H22.916a6.6,6.6,0,0,0,2.014-4H35.07A6.6,6.6,0,0,0,37.084,54ZM57,48H3a1,1,0,0,1-1-1V44H58v3A1,1,0,0,1,57,48Z"/><path d="M6,40H54a2,2,0,0,0,2-2V6a2,2,0,0,0-2-2H6A2,2,0,0,0,4,6V38A2,2,0,0,0,6,40Zm12.234-9.029-1.229-2.923c.307-.372.641-.729.966-1.062a9.739,9.739,0,0,1,1.128-.977l2.872,1.225a1,1,0,0,0,.909-.063A13.664,13.664,0,0,1,26.674,25.6a1,1,0,0,0,.689-.6l1.193-2.934a11.759,11.759,0,0,1,2.923.037L32.637,25a1,1,0,0,0,.689.6,13.664,13.664,0,0,1,3.794,1.574,1,1,0,0,0,.909.063l2.923-1.229c.372.308.729.641,1.062.966a9.643,9.643,0,0,1,.977,1.128l-1.225,2.872a1,1,0,0,0,.063.909A13.664,13.664,0,0,1,43.4,35.674a1,1,0,0,0,.6.689l2.934,1.193c.014.141.021.294.031.444H41.949a11.99,11.99,0,0,0-23.9,0h-5c.015-.162.027-.324.054-.481L16,36.363a1,1,0,0,0,.6-.689,13.664,13.664,0,0,1,1.574-3.794A1,1,0,0,0,18.234,30.971ZM39.949,38h-19.9a10,10,0,0,1,19.9,0ZM6,6H54V38H48.972c-.012-.217-.025-.431-.044-.631a2.064,2.064,0,0,0-1.285-1.706l-2.431-.971a15.636,15.636,0,0,0-1.41-3.4l1.028-2.409a2.013,2.013,0,0,0-.294-2.112c-.307-.373-.655-.754-1.108-1.217-.448-.438-.829-.786-1.19-1.083a2.016,2.016,0,0,0-2.122-.3L37.705,25.2a15.636,15.636,0,0,0-3.4-1.41l-.972-2.434a2.06,2.06,0,0,0-1.694-1.281,18.634,18.634,0,0,0-3.273,0,2.064,2.064,0,0,0-1.706,1.285l-.971,2.431a15.636,15.636,0,0,0-3.4,1.41L19.886,24.17a2.013,2.013,0,0,0-2.112.294c-.373.307-.754.655-1.217,1.108-.438.448-.786.829-1.083,1.19a2.018,2.018,0,0,0-.3,2.122L16.2,31.3a15.636,15.636,0,0,0-1.41,3.4l-2.434.972a2.06,2.06,0,0,0-1.281,1.694c-.02.206-.033.423-.045.644H6Z"/><path d="M21,18a3,3,0,0,0,3-3,1,1,0,0,0-2,0,1,1,0,0,1-2,0V11a1,1,0,0,1,2,0,1,1,0,0,0,2,0,3,3,0,0,0-6,0v4A3,3,0,0,0,21,18Z"/><path d="M27,18a1,1,0,0,0,1-1V11l.8,1.067a1.544,1.544,0,0,0,2.4,0L32,11v6a1,1,0,0,0,2,0V9.5a1.5,1.5,0,0,0-2.7-.9L30,10.335,28.7,8.6a1.5,1.5,0,0,0-2.7.9V17A1,1,0,0,0,27,18Z"/><path d="M39,14a1,1,0,1,1-.867,1.5,1,1,0,0,0-1.731,1A3,3,0,1,0,39,12a1,1,0,1,1,.867-1.5,1,1,0,0,0,1.731-1A3,3,0,1,0,39,14Z"/><path d="M14,18a1,1,0,0,0,0-2H10a1,1,0,0,0,0,2Z"/><path d="M46,18h4a1,1,0,0,0,0-2H46a1,1,0,0,0,0,2Z"/></svg>
