<?xml version="1.0" encoding="UTF-8"?>
<svg width="35px" height="50px" viewBox="0 0 35 50" version="1.1" xmlns="http://www.w3.org/2000/svg" xmlns:xlink="http://www.w3.org/1999/xlink">
    <title>Shape 2</title>
    <g id="Page-1" stroke="none" stroke-width="1" fill="none" fill-rule="evenodd">
        <g id="Shape-2" transform="translate(0.000000, 0.000000)" fill="#5872EA" fill-rule="nonzero">
            <path d="M25.4595285,37.0974042 C25.4595285,37.5290533 25.1099123,37.8786695 24.6782633,37.8786695 L21.6645325,37.8786695 C21.2328835,37.8786695 20.8832673,37.5290533 20.8832673,37.0974042 C20.8832673,36.6657552 21.2328835,36.316139 21.6645325,36.316139 L24.6782633,36.316139 C25.1099123,36.316139 25.4595285,36.6657552 25.4595285,37.0974042 Z M34.3669291,3.55475693 L34.3669291,36.4216098 C34.3669291,38.381609 32.7702182,39.9763667 30.8082658,39.9763667 L17.9652415,39.9763667 C16.713264,45.535069 13.9300065,46.3710229 11.865513,46.9911522 C11.1496787,47.2060001 10.5295494,47.3925272 10.1691908,47.7440966 L8.30782635,49.7499951 C8.15352646,49.916014 7.944538,50 7.73457296,50 C7.54413956,50 7.35370615,49.9306627 7.20331259,49.7910115 C6.88690016,49.4970605 6.86834511,49.0029102 7.16229616,48.6864978 L9.03537962,46.6688803 C9.04221569,46.6610676 9.04905176,46.6542315 9.05588783,46.6473955 C9.69261902,46.0116409 10.5295494,45.7606594 11.4153089,45.4940526 C13.4104651,44.8944315 15.672228,44.2157073 16.6322077,38.6628645 C16.6566222,38.5183304 16.7220532,38.3835622 16.8197113,38.274185 L23.2690561,31.0738491 C23.8227778,30.4537198 24.1079396,29.5113186 23.4965996,28.8072033 C22.9419012,28.1685189 21.9311393,28.0962519 21.2895252,28.6509502 L13.2649544,35.5876091 C13.0335046,35.7878084 12.7073263,35.8346843 12.4290006,35.7067521 C12.1506748,35.5797965 11.972937,35.3024473 11.972937,34.9967773 L11.972937,26.2221918 L8.53927618,27.3227993 C7.71992424,27.5854997 7.14178795,28.187074 6.9113147,29.0142386 L3.97864023,39.572062 C3.77160494,40.3171937 3.39464445,40.9343932 2.82529739,41.457841 L1.31061937,42.8553292 C1.16022581,42.9940038 0.970768983,43.0623645 0.781312158,43.0623645 C0.570370538,43.0623645 0.361382081,42.9774019 0.207082192,42.8104065 C-0.08589228,42.4930174 -0.0653840669,41.9988672 0.252004945,41.7068693 L1.76668297,40.309381 C2.1250884,39.9792965 2.34286609,39.6238208 2.47372803,39.1550616 L5.40640249,28.5972382 C5.77750349,27.2661575 6.74529583,26.2602785 8.06270437,25.8374187 L11.9739136,24.583488 L11.9739136,3.55475693 C11.9739136,1.59475771 13.571601,0 15.5355066,0 L30.8082658,0 C32.7702182,0 34.3669291,1.59475771 34.3669291,3.55475693 L34.3669291,3.55475693 Z M13.5354675,3.55475693 L13.5354675,4.19637102 L32.8043985,4.19637102 L32.8043985,3.55475693 C32.8043985,2.45610266 31.9088732,1.56253052 30.8082658,1.56253052 L15.53453,1.56253052 C14.4319694,1.56253052 13.5354675,2.45610266 13.5354675,3.55475693 Z M22.5522452,34.2184418 L32.8043985,34.2184418 L32.8043985,5.75890154 L13.5354675,5.75890154 L13.5354675,33.2916659 L20.2680209,27.4712397 C21.5717573,26.3452411 23.549335,26.4868454 24.6763101,27.7856989 C25.7280885,28.9976367 25.6284771,30.7789215 24.4331413,32.1178148 L22.5522452,34.2184418 Z M32.8043985,36.4225864 L32.8043985,35.7809723 L21.1528038,35.7809723 L18.7933827,38.4148128 L30.8072892,38.4148128 C31.9088732,38.4148128 32.8043985,37.5212406 32.8043985,36.4225864 L32.8043985,36.4225864 Z M17.7630891,18.6263404 C18.1947382,18.6263404 18.5443544,18.2767242 18.5443544,17.8450751 L18.5443544,15.3762769 L21.023895,15.3762769 C21.4555441,15.3762769 21.8051603,15.0266607 21.8051603,14.5950116 C21.8051603,14.1633626 21.4555441,13.8137464 21.023895,13.8137464 L17.7630891,13.8137464 C17.3314401,13.8137464 16.9818239,14.1633626 16.9818239,14.5950116 L16.9818239,17.8450751 C16.9818239,18.2757476 17.3314401,18.6263404 17.7630891,18.6263404 Z M25.3189008,15.3762769 L27.7955117,15.3762769 L27.7955117,17.8450751 C27.7955117,18.2767242 28.1451279,18.6263404 28.5767769,18.6263404 C29.008426,18.6263404 29.3580422,18.2767242 29.3580422,17.8450751 L29.3580422,14.5950116 C29.3580422,14.1633626 29.008426,13.8137464 28.5767769,13.8137464 L25.3189008,13.8137464 C24.8872517,13.8137464 24.5376355,14.1633626 24.5376355,14.5950116 C24.5376355,15.0266607 24.8872517,15.3762769 25.3189008,15.3762769 Z M21.023895,24.6010664 L18.5443544,24.6010664 L18.5443544,22.1293385 C18.5443544,21.6976894 18.1947382,21.3480732 17.7630891,21.3480732 C17.3314401,21.3480732 16.9818239,21.6976894 16.9818239,22.1293385 L16.9818239,25.3823317 C16.9818239,25.8139807 17.3314401,26.1635969 17.7630891,26.1635969 L21.023895,26.1635969 C21.4555441,26.1635969 21.8051603,25.8139807 21.8051603,25.3823317 C21.8051603,24.9506826 21.4545675,24.6010664 21.023895,24.6010664 Z M29.3580422,25.3823317 L29.3580422,22.1293385 C29.3580422,21.6976894 29.008426,21.3480732 28.5767769,21.3480732 C28.1451279,21.3480732 27.7955117,21.6976894 27.7955117,22.1293385 L27.7955117,24.6010664 L25.3189008,24.6010664 C24.8872517,24.6010664 24.5376355,24.9506826 24.5376355,25.3823317 C24.5376355,25.8139807 24.8872517,26.1635969 25.3189008,26.1635969 L28.5767769,26.1635969 C29.008426,26.1635969 29.3580422,25.8139807 29.3580422,25.3823317 Z M26.051337,23.6449931 L20.2904823,23.6449931 C19.8588332,23.6449931 19.509217,23.2953769 19.509217,22.8637278 L19.509217,20.7689603 L17.7630891,20.7689603 C17.3314401,20.7689603 16.9818239,20.4193441 16.9818239,19.9876951 C16.9818239,19.556046 17.3314401,19.2064298 17.7630891,19.2064298 L19.509217,19.2064298 L19.509217,17.1145921 C19.509217,16.682943 19.8588332,16.3333268 20.2904823,16.3333268 L26.051337,16.3333268 C26.482986,16.3333268 26.8326022,16.682943 26.8326022,17.1145921 L26.8326022,19.2064298 L28.5767769,19.2064298 C29.008426,19.2064298 29.3580422,19.556046 29.3580422,19.9876951 C29.3580422,20.4193441 29.008426,20.7689603 28.5767769,20.7689603 L26.8326022,20.7689603 L26.8326022,22.8637278 C26.8326022,23.2953769 26.482986,23.6449931 26.051337,23.6449931 L26.051337,23.6449931 Z M21.0717475,19.2064298 L25.2700717,19.2064298 L25.2700717,17.8958573 L21.0717475,17.8958573 L21.0717475,19.2064298 Z M25.2700717,22.0824625 L25.2700717,20.7689603 L21.0717475,20.7689603 L21.0717475,22.0824625 L25.2700717,22.0824625 Z M23.1713979,3.66022774 C23.6010938,3.66022774 23.9536397,3.30865837 23.9536397,2.87993906 C23.9536397,2.44829001 23.6010938,2.09965038 23.1713979,2.09965038 C22.7387723,2.09965038 22.3891561,2.44829001 22.3891561,2.87993906 C22.3891561,3.30865837 22.7387723,3.66022774 23.1713979,3.66022774 Z" id="Shape"></path>
        </g>
    </g>
</svg>