<?xml version="1.0" encoding="UTF-8"?>
<svg width="14px" height="13px" viewBox="0 0 14 13" version="1.1" xmlns="http://www.w3.org/2000/svg" xmlns:xlink="http://www.w3.org/1999/xlink">
    <title>smarthome</title>
    <defs>
        <path d="M1.02806194,2.5966421 C0.602906165,2.2877347 0.508448715,1.69027292 0.817363059,1.26494349 C0.967065405,1.05877368 1.18805888,0.923387909 1.43954715,0.88358491 C1.49024214,0.875665988 1.54073569,0.871498135 1.59083328,0.871498135 C1.79064017,0.871498135 1.98470237,0.934224328 2.14905472,1.05363333 C2.5745856,1.36295751 2.66905694,1.96021089 2.35994115,2.38574872 C2.17361032,2.64221063 1.8825205,2.77822213 1.58726977,2.77822213 C1.39281162,2.77842997 1.19697114,2.71959377 1.02806194,2.5966421 M2.24667974,0.378788405 C1.96548857,0.250279593 1.65281621,0.206725526 1.3401369,0.256045124 C0.920732769,0.322591849 0.552412622,0.548142179 0.302709581,0.891503831 L0.302904081,0.891503831 C-0.212145343,1.60038622 -0.0543226292,2.59587799 0.654393047,3.11109413 C0.935778719,3.31524948 1.26271208,3.41388868 1.58628338,3.41388868 C2.07816648,3.41388868 2.56354079,3.18694906 2.87404586,2.75939677 C3.32493813,2.13859502 3.26012801,1.29759168 2.76074972,0.752436458 L3.03617536,0.37343966 L2.52172333,0 L2.24667974,0.378788405 Z" id="path-1"></path>
        <linearGradient x1="29.3592198%" y1="79.2493416%" x2="148.486568%" y2="-88.6102341%" id="linearGradient-3">
            <stop stop-color="#2B70E5" offset="0%"></stop>
            <stop stop-color="#04B9CC" offset="100%"></stop>
        </linearGradient>
        <path d="M1.43960171,2.76675998 C1.18772444,2.72681805 0.966689287,2.59171014 0.816993887,2.38581818 L0.816993887,2.38560979 C0.50808649,1.96028036 0.602766225,1.36281858 1.02809566,1.05328601 C1.1928648,0.933738078 1.38673944,0.871150814 1.58651854,0.871150814 C1.63660225,0.871150814 1.68710274,0.875318667 1.73760323,0.883237588 C1.98906371,0.923040588 2.21009887,1.05863475 2.36000266,1.26480456 C2.66870167,1.690134 2.57402193,2.28759577 2.1486925,2.59650317 C1.98413175,2.71625949 1.78970139,2.77863836 1.59006122,2.77863836 C1.54018591,2.77849943 1.48989381,2.7746789 1.43960171,2.76675998 M0.140759682,0.373509124 L0.415976931,0.752297529 C-0.0831929713,1.29786953 -0.148142019,2.13845609 0.302958641,2.75925784 C0.552474128,3.1026195 0.920565043,3.32837822 1.34019841,3.39471655 C1.42431958,3.40798422 1.50830183,3.41472225 1.59207568,3.41472225 C1.92494824,3.41472225 2.24788741,3.31038699 2.52234055,3.1109552 C3.2312924,2.59587799 3.38911512,1.60045569 2.87403791,0.891295438 C2.62431403,0.547794858 2.25622311,0.322036135 1.83700653,0.255697803 C1.52455646,0.205753027 1.21148121,0.24972388 0.930081642,0.378649477 L0.654794928,0 L0.140759682,0.373509124 Z" id="path-4"></path>
        <linearGradient x1="0.792681197%" y1="119.261321%" x2="119.899463%" y2="-48.5713763%" id="linearGradient-6">
            <stop stop-color="#2B70E5" offset="0%"></stop>
            <stop stop-color="#04B9CC" offset="100%"></stop>
        </linearGradient>
        <path d="M1.5914948,2.43845123 C1.36455519,2.3227933 1.19645177,2.12593169 1.11760988,1.88377941 C0.955063594,1.38377594 1.22993352,0.84473357 1.729937,0.682381789 C1.82753423,0.650504658 1.92617342,0.635653207 2.02356226,0.635653207 C2.42555172,0.635653207 2.80065852,0.892316562 2.93132072,1.29465334 C3.00995422,1.53666669 2.98953174,1.7948652 2.8740822,2.02201321 C2.75821588,2.24895283 2.56142374,2.41705625 2.31941039,2.49582867 L2.31906307,2.49582867 C2.22202155,2.52736543 2.12261825,2.54299488 2.02356226,2.54299488 C1.87504776,2.54299488 1.72771414,2.50791545 1.5914948,2.43845123 M1.53370057,0.0778277148 C0.803562125,0.315054981 0.361769671,1.03367626 0.44533513,1.76812148 L-1.77635684e-15,1.91309331 L0.196444821,2.51764044 L0.641779951,2.37266861 C0.793698206,2.6419814 1.02098514,2.86100209 1.30280149,3.00479303 C1.52974111,3.12045096 1.77543606,3.1790093 2.02279816,3.1790093 C2.18791461,3.1790093 2.35386464,3.15289075 2.51550789,3.10023687 C2.91923395,2.96929681 3.24793865,2.68873082 3.44042401,2.31028974 C3.63311776,1.93212651 3.66694684,1.50179565 3.53586785,1.09820852 C3.31788912,0.42753145 2.69326683,0 2.02342334,0 C1.86080759,0 1.69589953,0.0249515487 1.53370057,0.0778277148" id="path-7"></path>
        <linearGradient x1="-45.0781441%" y1="183.23857%" x2="75.6878967%" y2="13.5970228%" id="linearGradient-9">
            <stop stop-color="#2B70E5" offset="0%"></stop>
            <stop stop-color="#04B9CC" offset="100%"></stop>
        </linearGradient>
        <path d="M4.78431698,6.41807042 C4.78431698,5.64694809 5.41164837,5.01982509 6.18256231,5.01982509 C6.95361518,5.01982509 7.58094658,5.64694809 7.58094658,6.41807042 C7.58094658,7.18919276 6.95361518,7.81652415 6.18256231,7.81652415 C5.41164837,7.81652415 4.78431698,7.18919276 4.78431698,6.41807042 M1.29516382,5.83269542 C0.795160346,5.67014914 0.520505757,5.13110677 0.683079823,4.6311033 C0.76169943,4.38915941 0.929816741,4.19188102 1.15695086,4.07646622 C1.29318409,4.00676582 1.4407122,3.97191561 1.58903221,3.97191561 C1.68803957,3.97191561 1.78744982,3.98735751 1.88447744,4.01904014 C2.38448092,4.18139192 2.65913551,4.72043429 2.49656144,5.22043776 C2.3658645,5.62298293 1.99081327,5.87923645 1.58883077,5.87923645 C1.49140719,5.87923645 1.39259434,5.86423218 1.29516382,5.83269542 M5.22923533,1.58892462 C5.22923533,1.06317771 5.65678761,0.635451761 6.18256231,0.635451761 C6.70826755,0.635451761 7.13616716,1.06317771 7.13616716,1.58892462 C7.13616716,2.11467154 6.70826755,2.54239749 6.18256231,2.54239749 C5.65657922,2.54239749 5.22923533,2.11467154 5.22923533,1.58892462 M4.59363769,1.58892462 C4.59363769,2.35645566 5.14032112,2.99824256 5.86469403,3.14596517 L5.86469403,4.28301808 C5.15602003,4.38818691 4.55953076,4.83727311 4.25020657,5.45606041 L3.16884313,5.10457144 C3.25240859,4.37012622 2.81082453,3.65171334 2.08091532,3.41448607 C1.67714758,3.28319174 1.24645551,3.317257 0.868229761,3.51012441 C0.490010963,3.70299877 0.209611683,4.03132142 0.0785257484,4.43465848 C-0.0525671323,4.838454 -0.0187033238,5.26892379 0.17396959,5.64715648 C0.366642504,6.02538917 0.694965151,6.30581624 1.09873289,6.43689523 C1.26130696,6.48996589 1.4264512,6.51511194 1.58883077,6.51511194 C2.15517257,6.51511194 2.68824796,6.20877472 2.97121742,5.70877125 L4.05383122,6.06046861 C4.03419368,6.17709904 4.02152341,6.29588286 4.02152341,6.41807042 C4.02152341,7.60972916 4.99104251,8.57924131 6.18256231,8.57924131 C7.37422105,8.57924131 8.3437332,7.60972916 8.3437332,6.41807042 C8.3437332,5.33470641 7.54156036,4.43743705 6.50036113,4.28301808 L6.50036113,3.14596517 C7.22494244,2.99824256 7.77162587,2.35645566 7.77162587,1.58892462 C7.77162587,0.712876583 7.05878402,0 6.18256231,0 C5.30627115,0 4.59363769,0.712876583 4.59363769,1.58892462" id="path-10"></path>
        <linearGradient x1="22.9356014%" y1="88.2098463%" x2="71.6932512%" y2="19.3927017%" id="linearGradient-12">
            <stop stop-color="#2B70E5" offset="0%"></stop>
            <stop stop-color="#04B9CC" offset="100%"></stop>
        </linearGradient>
    </defs>
    <g id="Page-1" stroke="none" stroke-width="1" fill="none" fill-rule="evenodd">
        <g id="smarthome" transform="translate(0.908429, 0.827687)">
            <g id="Clipped" transform="translate(1.755435, 8.499288)">
                <mask id="mask-2" fill="white">
                    <use xlink:href="#path-1"></use>
                </mask>
                <g id="Shape"></g>
                <polygon id="Path" fill="url(#linearGradient-3)" fill-rule="nonzero" mask="url(#mask-2)" points="0.971031812 -1.66873902 4.93581345 1.14220021 2.14192769 5.08276662 -1.8226525 2.27210525"></polygon>
            </g>
            <g id="Clipped" transform="translate(7.432476, 8.499635)">
                <mask id="mask-5" fill="white">
                    <use xlink:href="#path-4"></use>
                </mask>
                <g id="Shape"></g>
                <polygon id="Path" fill="url(#linearGradient-6)" fill-rule="nonzero" mask="url(#mask-5)" points="1.03504208 -1.66929473 5.00019883 1.14199182 2.20572262 5.08346126 -1.75943412 2.27231364"></polygon>
            </g>
            <g id="Clipped" transform="translate(8.750655, 3.336658)">
                <mask id="mask-8" fill="white">
                    <use xlink:href="#path-7"></use>
                </mask>
                <g id="Shape"></g>
                <polygon id="Path" fill="url(#linearGradient-9)" fill-rule="nonzero" mask="url(#mask-8)" points="1.22652978 -1.73011066 5.16674887 1.06340694 2.44020867 4.90915469 -1.50001042 2.11565098"></polygon>
            </g>
            <g id="Clipped">
                <mask id="mask-11" fill="white">
                    <use xlink:href="#path-10"></use>
                </mask>
                <g id="Shape"></g>
                <polygon id="Path" fill="url(#linearGradient-12)" fill-rule="nonzero" mask="url(#mask-11)" points="2.75577413 -3.96160712 12.3914829 2.8697268 5.53522523 12.5407165 -4.10051829 5.70953535"></polygon>
            </g>
        </g>
    </g>
</svg>