<?xml version="1.0" encoding="UTF-8"?>
<svg width="391px" height="391px" viewBox="0 0 391 391" version="1.1" xmlns="http://www.w3.org/2000/svg" xmlns:xlink="http://www.w3.org/1999/xlink">
    <title>logo</title>
    <g id="logo" stroke="none" stroke-width="1" fill="none" fill-rule="evenodd">
        <circle id="Oval" fill="#FCF2D0" fill-rule="nonzero" cx="195" cy="195.5" r="190"></circle>
        <path d="M195,5.5 C90.233,5.5 5,90.733 5,195.5 C5,300.267 90.233,385.5 195,385.5 C183.954,385.5 175,376.546 175,365.5 C175,354.454 183.954,345.5 195,345.5 L195,45.5 C183.954,45.5 175,36.546 175,25.5 C175,14.454 183.954,5.5 195,5.5 Z" id="Path" fill="#F6E3A3" fill-rule="nonzero"></path>
        <circle id="Oval" fill="#F6E3A3" fill-rule="nonzero" cx="195" cy="195.5" r="150"></circle>
        <path d="M195,45.5 C112.157,45.5 45,112.657 45,195.5 C45,278.343 112.157,345.5 195,345.5 C195,345.5 118.574,293.167 118.574,195.5 C118.574,97.833 195,45.5 195,45.5 Z" id="Path" fill="#E8D08E" fill-rule="nonzero"></path>
        <path d="M95.014,177.362 C95.274,196.015 102.418,216.382 116.098,233.637 L195,246.894 L273.902,233.638 C287.582,216.382 294.726,196.016 294.986,177.363 L195,160.851 L95.014,177.362 Z" id="Path" fill="#B49CDC" fill-rule="nonzero"></path>
        <path d="M269.616,238.708 C271.111,237.053 272.537,235.36 273.902,233.638 L116.098,233.638 C117.463,235.36 118.889,237.053 120.384,238.708 C141.661,262.264 165.044,277.627 179.862,285.951 C189.267,291.234 200.734,291.234 210.139,285.951 C224.956,277.627 248.339,262.264 269.616,238.708 Z" id="Path" fill="#89D47F" fill-rule="nonzero"></path>
        <path d="M265.299,125.859 C226.45,108.592 195,143.741 195,143.741 C195,143.741 163.55,108.591 124.701,125.858 C104.386,134.887 94.701,154.877 95.014,177.362 L294.986,177.362 C295.3,154.878 285.614,134.887 265.299,125.859 L265.299,125.859 Z" id="Path" fill="#E26E7E" fill-rule="nonzero"></path>
        <path d="M95.014,177.362 C95.274,196.015 102.418,216.382 116.098,233.637 L191.39,246.286 C182.882,218.835 178.976,185.753 185.524,162.415 L95.014,177.362 Z" id="Path" fill="#908CD6" fill-rule="nonzero"></path>
        <path d="M120.384,238.708 C141.661,262.264 165.044,277.627 179.862,285.951 C189.267,291.234 200.734,291.234 210.139,285.951 C201.309,274.55 193.097,255.013 187.9,233.638 L116.099,233.638 C117.464,235.359 118.889,237.052 120.384,238.708 Z" id="Path" fill="#84BD7D" fill-rule="nonzero"></path>
        <path d="M124.701,125.859 C104.386,134.888 94.701,154.878 95.014,177.363 L182.811,177.363 C184.158,163.696 187.953,151.791 195,143.742 C195,143.741 163.55,108.592 124.701,125.859 L124.701,125.859 Z" id="Path" fill="#D9495D" fill-rule="nonzero"></path>
        <g id="Group" transform="translate(38.240795, 38.000000)" fill="#000000" fill-rule="nonzero">
            <path d="M156.759205,0 C117.437205,0 79.7832046,14.571 50.7342046,41.03 C21.8812046,67.31 3.87720463,103.083 0.0372046257,141.759 C-0.371795374,145.881 2.63820463,149.554 6.75920463,149.964 C10.8752046,150.37 14.5542046,147.364 14.9642046,143.242 C22.2222046,70.132 83.1812046,15 156.759205,15 C235.334205,15 299.259205,78.925 299.259205,157.5 C299.259205,236.075 235.334205,300 156.759205,300 C83.3462046,300 22.4012046,245.006 14.9952046,172.079 C14.5772046,167.958 10.9002046,164.954 6.77620463,165.375 C2.65520463,165.793 -0.346795374,169.473 0.0722046257,173.594 C3.99220463,212.192 22.0282046,247.879 50.8582046,274.083 C79.8892046,300.469 117.499205,315 156.759205,315 C243.605205,315 314.259205,244.346 314.259205,157.5 C314.259205,70.654 243.605205,0 156.759205,0 Z" id="Path"></path>
            <path d="M137.947205,254.49 C143.749205,257.749 150.253205,259.379 156.759205,259.379 C163.263205,259.379 169.770205,257.749 175.571205,254.49 C191.623205,245.473 215.300205,229.695 236.941205,205.735 C258.601205,181.754 268.451205,149.854 262.646205,122.484 C258.567205,103.25 247.010205,88.519 230.105205,81.005 C212.058205,72.984 192.614205,73.906 173.875205,83.674 C166.547205,87.494 160.689205,91.967 156.760205,95.378 C152.830205,91.968 146.973205,87.494 139.645205,83.674 C120.907205,73.908 101.463205,72.985 83.4152046,81.005 C66.5102046,88.518 54.9532046,103.249 50.8742046,122.484 C45.0692046,149.855 54.9192046,181.755 76.5792046,205.735 C98.2182046,229.694 121.895205,245.472 137.947205,254.49 Z M231.934205,188.138 L81.5852046,188.138 C72.3832046,175.536 66.5392046,160.973 64.8102046,146.863 L248.708205,146.863 C246.979205,160.973 241.135205,175.536 231.934205,188.138 Z M168.225205,241.412 C161.152205,245.385 152.366205,245.385 145.294205,241.412 C131.957205,233.92 113.025205,221.456 94.7942046,203.138 L218.723205,203.138 C200.491205,221.456 181.560205,233.92 168.225205,241.412 Z M89.5062046,94.712 C96.1342046,91.766 102.523205,90.581 108.515205,90.581 C132.601205,90.581 150.264205,109.74 151.170205,110.743 C152.588205,112.328 154.620205,113.229 156.747205,113.235 C158.870205,113.273 160.910205,112.335 162.337205,110.757 C163.481205,109.491 190.747205,79.928 224.014205,94.713 C239.901205,101.774 245.812205,115.405 247.973205,125.596 C248.408205,127.645 248.727205,129.738 248.940205,131.863 L64.5802046,131.863 C64.7932046,129.738 65.1122046,127.645 65.5472046,125.596 C67.7082046,115.404 73.6192046,101.773 89.5062046,94.712 Z" id="Shape"></path>
        </g>
        <circle id="Oval" stroke="#000000" stroke-width="12" cx="195.5" cy="195.5" r="189.5"></circle>
    </g>
</svg>