<?xml version="1.0" encoding="UTF-8"?>
<svg width="191px" height="194px" viewBox="0 0 191 194" version="1.1" xmlns="http://www.w3.org/2000/svg" xmlns:xlink="http://www.w3.org/1999/xlink">
    <title>cbsi-eye</title>
    <g id="Page-1" stroke="none" stroke-width="1" fill="none" fill-rule="evenodd">
        <g id="cbsi-eye" fill="#EE2824" fill-rule="nonzero">
            <g id="Group">
                <path d="M190.185,96.808 C190.185,150.106 148.518,193.434 95.221,193.434 C42.179,193.434 0.001,150.106 0.001,96.808 C0.001,44.022 42.179,0.566 95.221,0.566 C148.518,0.566 190.185,44.022 190.185,96.808 Z M6.646,96.808 C20.066,125.055 51.636,152.662 95.22,152.662 C138.548,152.662 170.373,125.055 183.793,96.808 C170.373,68.945 138.675,41.466 95.22,41.466 C51.636,41.466 20.067,68.945 6.646,96.808 Z M95.22,45.811 C66.973,45.811 43.968,68.817 43.968,96.808 C43.968,125.309 66.846,148.061 95.22,148.061 C123.466,148.061 146.217526,125.309 146.217526,96.808 C146.344,68.817 123.466,45.811 95.22,45.811 Z" id="Shape"></path>
            </g>
        </g>
    </g>
</svg>