<?xml version="1.0" encoding="UTF-8"?>
<svg width="129px" height="129px" viewBox="0 0 129 129" version="1.1" xmlns="http://www.w3.org/2000/svg" xmlns:xlink="http://www.w3.org/1999/xlink">
    <title>Slice</title>
    <defs>
        <path d="M43.7197119,21.1129983 C43.7197119,32.7698315 34.0605,42.217341 22.1451864,42.217341 C10.2320847,42.217341 0.572872881,32.7698315 0.572872881,21.1129983 C0.572872881,9.45616505 10.2320847,0.00649164649 22.1451864,0.00649164649 C34.0605,0.00649164649 43.7197119,9.45616505 43.7197119,21.1129983" id="path-1"></path>
        <path d="M28.71119,18.6801507 L20.229038,18.6801507 L20.229038,10.1581921 C20.229038,4.54606403 15.6998601,-0.00218455744 10.116121,-0.00218455744 C4.5323818,-0.00218455744 0.00320396967,4.54606403 0.00320396967,10.1581921 L0.00320396967,28.8383427 C0.00320396967,34.4417326 4.51933568,38.9856121 10.0943774,38.9987194 L10.1052492,38.9987194 C10.1095979,38.9987194 10.1117723,38.9987194 10.116121,38.9987194 C10.1182953,38.9987194 10.122644,38.9987194 10.1269927,38.9987194 L28.7003182,38.9987194 C28.7024926,38.9987194 28.7068413,38.9987194 28.71119,38.9987194 C34.2949292,38.9987194 38.8219326,34.4504708 38.8219326,28.8383427 C38.8219326,23.2283992 34.2949292,18.6801507 28.71119,18.6801507" id="path-3"></path>
        <path d="M57.5307277,0.435179162 C25.7614288,0.435179162 0.00384856411,26.231805 0.00384856411,58.054194 L0.00384856411,59.8228405 C0.00384856411,65.493108 4.59585812,70.0902642 10.2570586,70.0902642 C15.918259,70.0902642 20.5102686,65.493108 20.5102686,59.8228405 L20.5102686,58.054194 C20.5102686,37.6076687 37.1168974,20.9722344 57.5307277,20.9722344 C77.944558,20.9722344 94.5533914,37.6076687 94.5533914,58.054194 C94.5533914,78.5007193 77.944558,95.1361536 57.5307277,95.1361536 L55.7649093,95.1361536 C50.1037089,95.1361536 45.5139039,99.7333097 45.5139039,105.403577 C45.5139039,111.076053 50.1037089,115.673209 55.7649093,115.673209 C55.7693184,115.673209 55.7737274,115.673209 55.7759319,115.673209 L57.5307277,115.673209 C89.3022312,115.673209 115.057607,89.8765831 115.057607,58.054194 C115.057607,26.231805 89.3022312,0.435179162 57.5307277,0.435179162" id="path-5"></path>
    </defs>
    <g id="Page-1" stroke="none" stroke-width="1" fill="none" fill-rule="evenodd">
        <g id="Group-3" transform="translate(6.000000, 7.000000)">
            <g id="Group" transform="translate(0.000000, -0.000000)">
                <g id="Group-57" transform="translate(57.627119, 58.161017) rotate(-180.000000) translate(-57.627119, -58.161017) translate(35.627119, 36.661017)">
                    <mask id="mask-2" fill="white">
                        <use xlink:href="#path-1"></use>
                    </mask>
                    <g id="Clip-56"></g>
                    <path d="M43.7197119,21.1129983 C43.7197119,32.7698315 34.0605,42.217341 22.1451864,42.217341 C10.2320847,42.217341 0.572872881,32.7698315 0.572872881,21.1129983 C0.572872881,9.45616505 10.2320847,0.00649164649 22.1451864,0.00649164649 C34.0605,0.00649164649 43.7197119,9.45616505 43.7197119,21.1129983" id="Fill-55" fill="#84B235" mask="url(#mask-2)"></path>
                </g>
                <g id="Group-51" transform="translate(96.500000, 19.822034) rotate(-180.000000) translate(-96.500000, -19.822034) translate(77.000000, 0.322034)">
                    <mask id="mask-4" fill="white">
                        <use xlink:href="#path-3"></use>
                    </mask>
                    <g id="Clip-50"></g>
                    <path d="M28.71119,18.6801507 L20.229038,18.6801507 L20.229038,10.1581921 C20.229038,4.54606403 15.6998601,-0.00218455744 10.116121,-0.00218455744 C4.5323818,-0.00218455744 0.00320396967,4.54606403 0.00320396967,10.1581921 L0.00320396967,28.8383427 C0.00320396967,34.4417326 4.51933568,38.9856121 10.0943774,38.9987194 L10.1052492,38.9987194 C10.1095979,38.9987194 10.1117723,38.9987194 10.116121,38.9987194 C10.1182953,38.9987194 10.122644,38.9987194 10.1269927,38.9987194 L28.7003182,38.9987194 C28.7024926,38.9987194 28.7068413,38.9987194 28.71119,38.9987194 C34.2949292,38.9987194 38.8219326,34.4504708 38.8219326,28.8383427 C38.8219326,23.2283992 34.2949292,18.6801507 28.71119,18.6801507" id="Fill-49" fill="#84B235" mask="url(#mask-4)"></path>
                </g>
                <g id="Group-54" transform="translate(58.000000, 58.000000) rotate(-180.000000) translate(-58.000000, -58.000000) ">
                    <mask id="mask-6" fill="white">
                        <use xlink:href="#path-5"></use>
                    </mask>
                    <g id="Clip-53"></g>
                    <path d="M57.5307277,0.435179162 C25.7614288,0.435179162 0.00384856411,26.231805 0.00384856411,58.054194 L0.00384856411,59.8228405 C0.00384856411,65.493108 4.59585812,70.0902642 10.2570586,70.0902642 C15.918259,70.0902642 20.5102686,65.493108 20.5102686,59.8228405 L20.5102686,58.054194 C20.5102686,37.6076687 37.1168974,20.9722344 57.5307277,20.9722344 C77.944558,20.9722344 94.5533914,37.6076687 94.5533914,58.054194 C94.5533914,78.5007193 77.944558,95.1361536 57.5307277,95.1361536 L55.7649093,95.1361536 C50.1037089,95.1361536 45.5139039,99.7333097 45.5139039,105.403577 C45.5139039,111.076053 50.1037089,115.673209 55.7649093,115.673209 C55.7693184,115.673209 55.7737274,115.673209 55.7759319,115.673209 L57.5307277,115.673209 C89.3022312,115.673209 115.057607,89.8765831 115.057607,58.054194 C115.057607,26.231805 89.3022312,0.435179162 57.5307277,0.435179162" id="Fill-52" fill="#5E5E5E" mask="url(#mask-6)"></path>
                </g>
            </g>
        </g>
    </g>
</svg>