<?xml version="1.0" encoding="UTF-8"?>
<svg width="1564px" height="357px" viewBox="0 0 1564 357" version="1.1" xmlns="http://www.w3.org/2000/svg" xmlns:xlink="http://www.w3.org/1999/xlink">
    <title>cnet</title>
    <g id="Page-1" stroke="none" stroke-width="1" fill="none" fill-rule="evenodd">
        <g id="cnet" fill="#E71D1D" fill-rule="nonzero">
            <path d="M-5.68434189e-14,104.430005 C-5.68434189e-14,35.020005 43.260049,0 123.120049,0 L356.530049,0 L356.530049,148.360005 L337.440049,148.360005 C329.400049,62.200005 290.930049,26.780005 212.770049,26.780005 L164.590049,26.780005 C127.080049,26.780005 108.850049,45.480005 108.850049,82.400005 L108.850049,274.140005 C108.850049,311.060005 127.070049,329.760005 164.590049,329.760005 L212.800049,329.760005 C289.810049,329.760005 328.990049,292.240005 337.430049,203.350005 L356.520049,203.350005 L356.520049,356.540005 L123.130049,356.540005 C43.269949,356.540005 0.01001,321.520005 0.01001,252.110005 L0.01001,104.430005 L-5.68434189e-14,104.430005 Z" id="Path"></path>
            <path d="M762.200049,0.01001 L762.200049,356.550005 L667.280049,356.550005 L434.030049,72.700005 L434.030049,200.5 C434.030049,294.510005 471.740049,329.370005 556.840049,338.640005 L556.840049,356.550005 L405.670049,356.550005 L405.670049,0.01001 L514.850049,0.01001 L733.840049,266.580005 L733.840049,154.780005 C733.840049,61.400005 695.970049,26.190005 612.970049,17.910005 L612.970049,0 L762.200049,0 L762.200049,0.01001 Z" id="Path"></path>
            <path d="M812.280049,0.01001 L1168.82005,0.01001 L1168.82005,148.370005 L1149.73005,148.370005 C1141.65005,61.890005 1103.22005,26.400005 1025.06005,26.400005 L917.820049,26.400005 L917.820049,160.100005 L954.150049,160.100005 C1014.80005,160.100005 1040.59005,132.880005 1046.73005,74.490005 L1066.14005,74.490005 L1066.14005,270.470005 L1046.73005,270.470005 C1040.63005,211.800005 1014.92005,184.780005 954.150049,184.780005 L917.820049,184.780005 L917.820049,330.170005 L1025.10005,330.170005 C1102.11005,330.170005 1141.29005,292.540005 1149.73005,203.360005 L1168.82005,203.360005 L1168.82005,356.550005 L812.280049,356.550005 L812.280049,0.01001 Z" id="Path"></path>
            <path d="M1563.03005,0.01001 L1563.03005,148.370005 L1543.94005,148.370005 C1535.70005,66.760005 1501.59005,28.850005 1437.53005,21.960005 L1437.53005,272.680005 C1437.53005,316.260005 1452.90005,333.690005 1509.15005,337.330005 L1509.15005,356.540005 L1260.37005,356.540005 L1260.37005,337.330005 C1316.63005,333.680005 1332.00005,316.260005 1332.00005,272.680005 L1332.00005,21.950005 C1267.94005,28.840005 1233.83005,66.750005 1225.59005,148.360005 L1206.49005,148.360005 L1206.49005,0.01001 L1563.03005,0.01001 Z" id="Path"></path>
        </g>
    </g>
</svg>