<svg xmlns="http://www.w3.org/2000/svg" viewBox="0 0 292.89 110.18"><defs><style>.cls-1{fill:gray;}.cls-2{fill:#ff8200;}.cls-3{fill:#d21f2a;}</style></defs><title>logo</title><g id="Layer_2" data-name="Layer 2"><g id="Layer_1-2" data-name="Layer 1"><path class="cls-1" d="M229.52,74.91H193.66v4.71c0,10.94,4.56,14.29,13.83,14.29h19.6A4.8,4.8,0,0,1,232,98.77v5.92a4.77,4.77,0,0,1-4.87,4.71h-23.7c-21.27,0-30.54-15.34-30.54-29.78V55.92c0-15.81,14-28.57,28.41-28.57H208c14.28,0,29,12.76,29,28.57v11.7A7.33,7.33,0,0,1,229.52,74.91Zm-13.37-22c0-6.38-4.86-10.79-11.24-10.79s-11.25,4.41-11.25,10.79v9.27h22.49Z"/><path class="cls-1" d="M288.18,42.85h-9.12v60.63a6.74,6.74,0,0,1-6.69,6.68h-7.59a6.74,6.74,0,0,1-6.69-6.68V42.85h-9A4.77,4.77,0,0,1,244.41,38V32.06a4.74,4.74,0,0,1,4.71-4.71h9V6.69A6.75,6.75,0,0,1,264.78,0h7.59a6.75,6.75,0,0,1,6.69,6.69V27.35h9.12a4.74,4.74,0,0,1,4.71,4.71V38A4.77,4.77,0,0,1,288.18,42.85Z"/><rect class="cls-2" y="27.9" width="31.37" height="82.28" rx="8.88"/><rect class="cls-2" y="0.02" width="31.37" height="19.53" rx="8.88"/><rect class="cls-3" x="45.73" y="27.9" width="31.37" height="82.28" rx="8.88"/><rect class="cls-3" x="45.73" y="0.02" width="31.37" height="19.53" rx="8.88"/><path class="cls-1" d="M136.53,26.44a35.23,35.23,0,0,0-16.2,4h0l-.06,0c-.48.26-.83.46-1.06.6a34.76,34.76,0,0,0-6.41,4.81v-3.1a6.14,6.14,0,0,0-6.08-6.23H98.24A6.26,6.26,0,0,0,92,32.82v70.66a6.74,6.74,0,0,0,6.69,6.68h7.44a6.64,6.64,0,0,0,6.69-6.68V56.05c0-5.38,5.51-13.2,13.52-13.2s10.79,4.56,10.79,13.83v46.8a6.74,6.74,0,0,0,6.69,6.68h7.44a6.74,6.74,0,0,0,6.69-6.68V54.4C158,35.86,148.69,26.44,136.53,26.44Z"/></g></g></svg>