<?xml version="1.0" encoding="UTF-8"?>
<svg width="53px" height="53px" viewBox="0 0 53 53" version="1.1" xmlns="http://www.w3.org/2000/svg" xmlns:xlink="http://www.w3.org/1999/xlink">
    <title>mets-logo</title>
    <g id="Page-1" stroke="none" stroke-width="1" fill="none" fill-rule="evenodd">
        <g id="mets-logo">
            <polygon id="Fill-52" fill="#B27029" points="34.7959999 52.0931729 0 52.0931729 0 19.9895208"></polygon>
            <polygon id="Fill-53" fill="#A35627" points="10.1176433 23.5298335 28.2762775 35.2345409 30.8600194 35.2345409"></polygon>
            <polygon id="Fill-54" fill="#A35627" points="30.8600194 35.2345409 28.2762775 35.2345409 52.3751033 50.7203986 52.3751033 47.3486722"></polygon>
            <polygon id="Fill-55" fill="#A95423" points="26.8033032 36.6554827 3.81524496 20.5916148 26.8033032 39.7622878 41.5330464 52.0690891 41.6296349 52.0931729 48.8737709 52.0931729"></polygon>
            <polygon id="Fill-56" fill="#973A20" points="38.2007438 35.2345409 19.8489326 27.9612454 34.4820874 35.2345409 52.3751033 44.0973646 52.3751033 40.8219732"></polygon>
            <path d="M0,9.22408008 L0,17.6533961 C0.16902984,17.6774798 0.41050104,17.8460662 0.603678,18.2073226 C1.207356,19.2429242 1.01417904,18.6167465 1.207356,18.4963277 C1.40053296,18.3759089 2.12494656,18.8335003 2.2939764,19.0984217 C2.43885912,19.363343 3.11497848,19.1947567 3.21156696,19.0261704 C3.30815544,18.8575841 4.44307008,18.7130815 4.78112976,19.1947567 C5.09504232,19.6764319 5.26407216,19.8209345 5.45724912,19.6764319 C5.65042608,19.5560131 6.56801664,19.363343 6.8819292,19.6523482 C7.19584176,19.9413533 7.55804856,19.5078456 7.55804856,19.5078456 C7.55804856,19.5078456 8.28246216,19.6764319 8.54808048,19.9413533 C8.8136988,20.2062746 9.32078832,19.8931858 9.32078832,19.8931858 C9.32078832,19.8931858 10.2866731,20.2544422 10.4315558,20.8565362 C10.5764386,21.4586302 11.1559694,21.4345464 11.5181762,21.5308814 C11.880383,21.6031327 11.9286773,21.9403054 12.2184427,22.1570592 C12.5082082,22.373813 13.2084746,22.5905669 13.5465343,22.8314045 C13.884594,23.0722421 14.1985066,23.481666 14.3675364,23.4575822 C14.5607134,23.4334985 14.9712144,23.0240746 15.2368327,23.2889959 C15.502451,23.5539173 15.8405107,24.1078438 15.9612463,23.8670062 C16.0819819,23.6502523 16.3717474,22.9277395 16.7339542,23.3130797 C17.1203081,23.6984198 17.1203081,23.987425 17.3376322,24.0115087 C17.5791034,24.0115087 18.0378986,24.4450164 18.3759583,24.589519 C18.714018,24.7099378 18.8830478,24.8062728 19.1728133,24.8544403 C19.4384316,24.8785241 20.1869923,25.3601993 20.1869923,25.3601993 C20.1869923,25.3601993 20.718229,25.5528694 21.1045829,25.6251206 C21.4667897,25.6973719 21.6841138,25.9382095 21.6841138,25.9382095 C21.6841138,25.9382095 21.9497321,25.6732882 22.3602331,25.9622933 C22.7948813,26.2512984 22.8673226,26.8293086 23.2778237,26.7570574 C23.6641776,26.6848061 24.2195614,27.2869001 24.5817682,27.1664813 C24.9198278,27.0701462 25.0164163,26.997895 25.5959472,27.1423975 C26.1754781,27.2869001 26.3445079,27.1423975 26.6101262,27.4073189 C26.8757446,27.6722402 27.7208938,28.2502505 27.7208938,28.4910881 C27.7208938,28.7319257 28.2038362,29.2858522 28.3487189,29.1895171 C28.4694545,29.0690983 29.2663094,29.7675274 29.5319278,29.7193598 C29.7975461,29.6952761 30.3287827,29.7434436 30.5702539,29.7675274 C30.8117251,29.7675274 31.391256,30.2251188 31.391256,30.2251188 C31.391256,30.2251188 31.3671089,30.4900402 31.6085801,30.5863752 C31.8500513,30.6586265 32.3329937,30.8753803 32.3329937,30.8753803 L32.7434947,31.0921342 C32.7434947,31.0921342 33.3713198,30.6827102 33.6369382,31.0680504 C33.9025565,31.4533906 34.0232921,31.212553 34.2406162,31.2366367 C34.4579402,31.2366367 34.9408826,31.6701444 35.013324,31.9591495 C35.0857654,32.2481546 35.4962664,32.3444897 35.7618847,32.3204059 C36.027503,32.2963222 36.7036224,32.5371598 36.824358,32.7298298 C36.9450936,32.9224999 37.1865648,33.3319238 37.1865648,33.3319238 C37.1865648,33.3319238 37.8868313,32.8984162 38.224891,32.9706674 C38.5388035,33.018835 38.9975988,33.4041751 39.2149229,33.0910862 C39.432247,32.8020811 39.7220124,32.3685734 40.3739846,32.609411 C41.0018098,32.8502486 41.4364579,33.3078401 41.653782,33.2596726 C41.8711061,33.211505 42.3299014,33.11517 42.5713726,33.4041751 C42.8128438,33.717264 43.0301678,33.717264 43.2474919,33.8858503 C43.4406689,34.0544366 43.8028757,34.4879443 44.068494,34.3916093 C44.3582594,34.319358 44.865349,34.6565306 44.9860846,34.7287819 C45.1309673,34.8010332 45.3724385,34.4638606 45.8070866,34.415693 C46.2417348,34.3675255 47.4490908,34.8492007 47.6181206,35.0659546 C47.7871505,35.2827084 48.7288882,35.2827084 48.7288882,35.2827084 C48.7288882,35.2827084 48.7288882,34.5361118 49.2359777,34.6806144 C49.7430672,34.8492007 50.5882164,35.427211 50.5882164,35.427211 C50.5882164,35.427211 51.31263,35.0659546 51.6506897,35.3067922 C51.9887494,35.5476298 52.3026619,35.2827084 52.3026619,35.2827084 C52.3026619,35.2827084 52.326809,35.2827084 52.3751033,35.2827084 L52.3751033,1.78219824 L52.3751033,0 L0,0 L0,9.22408008 Z" id="Fill-61" fill="#993920"></path>
        </g>
    </g>
</svg>