<?xml version="1.0" encoding="UTF-8"?>
<svg width="71px" height="30px" viewBox="0 0 71 30" version="1.1" xmlns="http://www.w3.org/2000/svg" xmlns:xlink="http://www.w3.org/1999/xlink">
    <title>Fill 1</title>
    <g id="Page-1" stroke="none" stroke-width="1" fill="none" fill-rule="evenodd">
        <g id="NHS-logo-for-A4-10mm---RGB-Blue" transform="translate(-36.000000, -54.000000)" fill="#005EB8">
            <path d="M36,83.323 L106.394,83.323 L106.394,54.977 L36,54.977 L36,83.323 Z M64.302,57.712 L59.443,80.528 L51.817,80.528 L47.022,64.741 L46.958,64.741 L43.768,80.528 L37.985,80.528 L42.884,57.712 L50.535,57.712 L55.235,73.534 L55.3,73.534 L58.519,57.712 L64.302,57.712 Z M86.114,57.712 L81.349,80.528 L75.208,80.528 L77.245,70.756 L69.982,70.756 L67.945,80.528 L61.804,80.528 L66.568,57.712 L72.71,57.712 L70.905,66.441 L78.165,66.441 L79.973,57.712 L86.114,57.712 Z M103.757,58.334 L102.276,62.877 C101.094,62.323 99.484,61.834 97.218,61.834 C94.789,61.834 92.816,62.19 92.816,64.023 C92.816,67.257 101.72,66.05 101.72,72.98 C101.72,79.287 95.838,80.923 90.516,80.923 C88.151,80.923 85.424,80.365 83.421,79.743 L84.867,75.101 C86.08,75.887 88.514,76.411 90.516,76.411 C92.424,76.411 95.41,76.05 95.41,73.697 C95.41,70.034 86.507,71.408 86.507,64.972 C86.507,59.086 91.699,57.321 96.726,57.321 C99.553,57.321 102.212,57.617 103.757,58.334 L103.757,58.334 Z" id="Fill-1"></path>
        </g>
    </g>
</svg>