<?xml version="1.0" encoding="UTF-8"?>
<svg width="308px" height="184px" viewBox="0 0 308 184" version="1.1" xmlns="http://www.w3.org/2000/svg" xmlns:xlink="http://www.w3.org/1999/xlink">
    <title>rv</title>
    <defs>
        <polygon id="path-1" points="0 0 134.021 0 134.021 128.595 0 128.595"></polygon>
    </defs>
    <g id="rv" stroke="none" stroke-width="1" fill="none" fill-rule="evenodd">
        <g id="Group-3" transform="translate(0.060000, 27.913000)">
            <mask id="mask-2" fill="white">
                <use xlink:href="#path-1"></use>
            </mask>
            <g id="Clip-2"></g>
            <path d="M64.522,51.514 C79.481,51.514 83.835,43.18 83.835,36.359 C83.835,31.061 80.627,21.792 68.123,21.792 L51.075,21.792 L51.075,51.514 L64.522,51.514 Z M134.021,128.595 L94.825,128.595 L65.847,72.152 L51.075,72.152 L51.075,106.818 L67.178,106.818 L67.178,128.595 L-0.06,128.595 L-0.06,106.818 L17.561,106.818 L17.561,21.792 L-0.06,21.792 L-0.06,0 L80.049,0 C105.055,0 118.679,16.478 118.679,35.981 C118.679,50.76 111.488,61.165 96.53,67.986 L117.356,106.818 L134.021,106.818 L134.021,128.595 L134.021,128.595 Z" id="Fill-1" fill="#A22B30" mask="url(#mask-2)"></path>
        </g>
        <polyline id="Fill-4" fill="#1A1919" points="190.821 49.705 175.66 49.705 175.66 27.913 239.301 27.913 239.301 49.705 224.536 49.705 245.935 114.077 246.308 114.077 267.9 49.705 253.694 49.705 253.694 27.913 307.871 27.913 307.871 49.705 292.712 49.705 255.397 157.45 229.454 157.45 190.821 49.705"></polyline>
        <polygon id="Fill-5" fill="#1A1919" points="151.143 184 158.599 184 158.599 0.42 151.143 0.42"></polygon>
    </g>
</svg>