<?xml version="1.0" encoding="utf-8"?>
<!-- Generator: Adobe Illustrator 19.2.1, SVG Export Plug-In . SVG Version: 6.00 Build 0)  -->
<svg version="1.1" id="layer" xmlns="http://www.w3.org/2000/svg" xmlns:xlink="http://www.w3.org/1999/xlink" x="0px" y="0px"
	 viewBox="0 0 652 652" style="enable-background:new 0 0 652 652;" xml:space="preserve">
<style type="text/css">
	.st0{fill:#007266;}
	.st1{fill:#920238;}
</style>
<path class="st0" d="M73.8,268.1c-3.8,0.1-7.4-1-10.6-3.1c-3.6-2.5-6.4-5.8-8.4-9.6l-8.6-15.6h-8.7v27.5h-10v-67.6h22.5
	c6.2-0.4,12.3,1.7,17,5.9c3.6,3.8,5.5,9,5.3,14.2c0.2,4.7-1.4,9.3-4.2,13c-2.9,3.4-7,5.7-11.5,6.3l7.5,12.8c4.1,7,7.6,8.3,11.9,8.3
	c1.2,0,2.4-0.1,3.6-0.4h0.7v7.4h-0.4C78,267.8,75.9,268.1,73.8,268.1z M37.5,231.3h12.5c3.7,0.4,7.3-1,10-3.6
	c1.8-2.2,2.7-5.1,2.6-7.9c0.1-2.9-0.8-5.7-2.6-7.9c-2.6-2.6-6.3-3.9-10-3.6H37.5V231.3z"/>
<path class="st0" d="M56.2,363.2h-6.6l-28.9-67.5H31l22.2,52.1l22.2-52.1h10L56.2,363.2z"/>
<path class="st0" d="M46.8,460.8c-4.8,0-9.6-0.9-14-2.7c-3.2-1.3-6.1-3.2-8.6-5.6l-0.2-0.2l2.3-9.5l0.7,0.8
	c5.1,5.7,12.3,8.9,19.9,8.9c3.4,0.1,6.8-0.9,9.6-3c2.5-1.9,3.9-4.9,3.8-8.1c0.2-2.9-0.9-5.8-3-7.8c-3.6-2.7-7.8-4.6-12.3-5.5
	c-5.4-1.2-10.3-3.8-14.2-7.6c-3.1-3.3-4.8-7.8-4.7-12.3c0-4.9,2.1-9.5,5.8-12.6c4.6-3.6,10.3-5.5,16.2-5.2c6.6,0,13,2.1,18.3,6
	l0.3,0.2l-2.3,8.4l-0.7-0.5c-4.6-3.4-10-5.5-15.7-5.8c-3.3-0.2-6.6,0.7-9.3,2.6c-2.1,1.6-3.4,4.2-3.3,6.9c0,3.5,1.5,7.9,13,11
	c5.9,1.2,11.5,3.9,16,7.9c3.6,3.6,5.5,8.5,5.2,13.6c0.2,5.9-2.5,11.5-7.1,15.1C58,459.1,52.5,460.9,46.8,460.8z"/>
<path class="st0" d="M122.1,459.4H80.7v-67.6h41.4v8.6H90.7v19.2h25.8v8.6H90.7v22.8h31.4V459.4z"/>
<path class="st0" d="M179,460.2c-3.8,0.1-7.5-1-10.6-3.1c-3.5-2.5-6.4-5.8-8.4-9.7l-8.6-15.6h-8.9v27.5h-10v-67.6h22.5
	c6.2-0.4,12.3,1.7,17,5.9c3.6,3.8,5.5,8.9,5.3,14.2c0.1,4.7-1.4,9.3-4.3,13c-2.9,3.4-7,5.7-11.5,6.3l7.4,12.8c4.2,7,7.7,8.5,12,8.5
	c1.2,0,2.4-0.1,3.6-0.4l0.7-0.2v7.5H185C183.1,459.9,181.1,460.2,179,460.2z M142.5,423.3H155c3.7,0.3,7.3-1,10-3.6
	c3.4-4.7,3.4-11.2,0-15.9c-2.6-2.6-6.3-3.9-10-3.6h-12.5V423.3z"/>
<path class="st0" d="M216.4,459.4h-6.6l-29.1-67.6H191v0.3l22.1,51.7l22.4-52h10L216.4,459.4z"/>
<path class="st0" d="M263.1,459.4h-10v-67.6h10V459.4z"/>
<path class="st0" d="M308.5,460.8c-9.3,0.2-18.3-3.2-25.3-9.4c-3.4-3.1-6.1-6.9-7.9-11.1c-3.8-9.4-3.8-20,0-29.4
	c1.8-4.2,4.4-8.1,7.8-11.2c7-6.2,16.1-9.6,25.4-9.4c8.3,0,16.4,2.4,23.2,7.1l0.2,0.2v10.8l-1-0.9c-6.2-5.7-14.3-8.8-22.7-8.6
	c-15.3,0-25.6,10.8-25.6,26.6c-0.3,7.2,2.3,14.1,7.2,19.4c2.3,2.3,5,4.2,8.1,5.3c3.3,1.3,6.8,1.9,10.3,1.9
	c8.4,0.2,16.5-2.9,22.7-8.6l1-0.9v10.8l-0.2,0.2C324.9,458.3,316.8,460.8,308.5,460.8z"/>
<path class="st0" d="M385.5,459.4h-41.4v-67.6h41.4v8.6h-31.4v19.2H380v8.6h-25.8v22.8h31.4V459.4z"/>
<path class="st0" d="M255.8,363.2h-41.4v-67.5h10v59.1h31.4L255.8,363.2z"/>
<path class="st0" d="M290.1,365.2c-4.1,0.1-8.1-0.6-11.9-2c-3.5-1.3-6.7-3.3-9.3-6.1c-5.4-5.7-8.1-14.1-8.1-25.1v-36.5h10.2V332
	c-0.5,6.6,1.4,13.1,5.3,18.4c7.9,7.6,20.3,7.6,28.2,0c3.9-5.3,5.7-11.9,5.2-18.4v-36.5h9.8V332c0,11-2.7,19.4-8.1,25.1
	c-2.6,2.7-5.8,4.8-9.3,6C298.2,364.5,294.2,365.2,290.1,365.2z"/>
<path class="st0" d="M383.6,363.2h-6V363L339,314.8v48.3h-9.2v-67.5h5.9l0.2,0.2l38.5,48.2v-48.5h9.3V363.2z"/>
<path class="st0" d="M425.2,363.2h-10v-58.9h-23.6v-8.6h57.2v8.6h-23.6L425.2,363.2z"/>
<path class="st0" d="M503.1,363.2h-10.4l-8-18.6h-28.5l-8,18.6h-10l29.1-67.6h6.6L503.1,363.2z M459.8,336.2h21.5l-10.8-25.3
	L459.8,336.2z"/>
<path class="st0" d="M557.1,364.1c-3.8,0-7.5-1-10.6-3.1c-3.5-2.5-6.4-5.8-8.4-9.7l-8.6-15.6h-8.6v27.3h-10v-67.5h22.5
	c6.2-0.4,12.3,1.7,17,5.9c3.6,3.8,5.5,8.9,5.3,14.2c0.2,4.7-1.4,9.3-4.2,13c-2.9,3.5-7,5.7-11.5,6.4l7.4,12.8c4.1,7,7.7,8.5,12,8.5
	c1.2,0,2.5-0.1,3.7-0.4h0.7v7.2h-0.4C561.3,363.7,559.2,364,557.1,364.1z M520.9,327.2h12.5c3.7,0.3,7.3-1,10-3.6
	c3.4-4.7,3.4-11.2,0-15.9c-2.6-2.6-6.3-3.9-10-3.6h-12.5V327.2z"/>
<path class="st0" d="M594.1,363.2h-10v-26.9l-26.6-40.7h11l20.7,32.2l20.7-32.2h10.6l-26.6,40.7V363.2z"/>
<path class="st0" d="M235.7,267.3h-10v-26.9l-26.6-40.7h11.1l20.7,32.2l20.7-32.2h10.6l-26.6,40.7L235.7,267.3z"/>
<path class="st0" d="M317.8,267.3h-10.4l-8-18.6H271l-8,18.6h-10l29.1-67.6h6.6L317.8,267.3z M274.5,240.3H296L285.2,215
	L274.5,240.3z"/>
<path class="st0" d="M369.1,267.3h-41.4v-67.6h10v59.1H369L369.1,267.3z"/>
<path class="st0" d="M199.3,219.3c-2.8-6.7-6.9-12.8-12-17.9c-23-22-59.2-22-82.2,0c-5.2,5.1-9.2,11.2-12,17.9
	c-7.3,17.6-5.3,37.6,5.3,53.4c2.5-2.8,5.2-5.3,8.1-7.6l0.9-0.6c-4.1-7.1-6.2-15.1-6.2-23.2c-0.1-12,4.5-23.6,12.8-32.2
	c17.7-17.8,46.4-17.8,64.2-0.1c0,0,0.1,0.1,0.1,0.1c8.3,8.6,13,20.2,12.8,32.2c0,8.9-2.5,17.6-7.2,25.1c-0.9,1.3-1.8,2.6-2.7,3.8
	c-2.1,2.7-4.6,5.1-7.3,7.3c-1.3,1-2.6,2-4,2.8c-13.8,8.5-31.1,8.9-45.4,1.2c-0.8,0.5-1.7,1.1-2.5,1.7c-2.3,1.8-4.4,3.9-6.2,6.2
	c19.3,11.4,43.4,11,62.3-1c1.3-0.8,2.6-1.8,3.9-2.8c2.9-2.2,5.5-4.7,7.9-7.4c1.1-1.2,2.1-2.5,3-3.8c7-9.6,10.7-21.3,10.7-33.2
	C203.7,233.7,202.2,226.3,199.3,219.3z"/>
<path class="st1" d="M194,282.9c-2.5,2.8-5.2,5.3-8.1,7.6l-0.9,0.6c4.1,7.1,6.2,15.1,6.2,23.2c0.1,12-4.5,23.6-12.8,32.2
	c-17.7,17.8-46.4,17.8-64.2,0.1c0,0-0.1-0.1-0.1-0.1c-8.3-8.6-12.9-20.2-12.8-32.2c0-8.9,2.5-17.6,7.2-25.1c0.8-1.3,1.7-2.6,2.7-3.8
	c2.1-2.7,4.6-5.1,7.3-7.3c1.3-1,2.6-2,4-2.8c13.8-8.5,31.1-8.9,45.4-1.2c0.8-0.5,1.7-1.1,2.5-1.7c2.3-1.8,4.4-3.9,6.3-6.2
	c-19.3-11.4-43.3-11-62.3,0.9c-1.3,0.9-2.7,1.8-3.9,2.8c-2.9,2.2-5.5,4.7-7.9,7.4c-1.1,1.2-2.1,2.5-3,3.8
	c-16.3,22.4-13.9,53.4,5.7,73c23,22,59.2,22,82.2,0c5.2-5.1,9.3-11.2,12-17.9c2.9-6.9,4.4-14.4,4.3-21.9
	C203.7,303.1,200.3,292.2,194,282.9z"/>
</svg>
