<?xml version="1.0" encoding="UTF-8"?>
<svg width="417px" height="576px" viewBox="0 0 417 576" version="1.1" xmlns="http://www.w3.org/2000/svg" xmlns:xlink="http://www.w3.org/1999/xlink">
    <title>uwa-crest</title>
    <g id="Page-1" stroke="none" stroke-width="1" fill="none" fill-rule="evenodd">
        <g id="uwa-crest" transform="translate(5.000000, 18.000000)">
            <g id="Group" transform="translate(0.791530, 0.720725)">
                <path d="M276.778476,475.160306 C290.928886,471.31199 304.723085,466.256865 318.009358,460.05053 C317.542447,458.610886 317.075535,457.638154 316.84208,456.937787 C313.820124,450.452904 310.551744,435.109672 319.410093,425.991928 C330.011165,414.731333 339.966255,402.879623 349.227582,390.493681 C357.61902,379.222955 362.04171,374.657598 373.701529,373.47735 C390.704891,371.557824 404.452841,386.901056 401.417916,408.262259 C401.417916,408.975596 401.184461,409.688933 401.184461,410.41524 C399.083359,421.206084 398.149536,432.243354 399.316814,446.873249 C399.783726,451.918488 399.316814,457.197182 399.316814,461.995995 C398.616447,470.374463 396.294859,475.666127 392.092655,479.985059 C390.225009,481.658159 388.837244,483.344228 388.837244,483.344228 C390.004523,485.97709 391.8592,489.569715 393.259934,491.982091 C405.373695,515.24985 404.206416,528.673556 404.206416,528.673556 C404.452841,544.98952 393.960302,556.506672 384.635041,556.506672 C384.635041,556.506672 377.410882,556.753097 376.490028,556.753097 L328.488928,556.753097 C322.89896,556.753097 318.47627,551.954284 318.47627,546.195709 C318.47627,542.123202 320.797858,538.297122 324.299694,536.844508 L343.87107,527.960219 C344.104525,524.60105 343.637614,521.968188 341.536512,514.769968 C310.318288,531.306418 273.276639,542.82357 236.701902,546.182739 L235.080682,546.182739 C226.455788,546.182739 219.465085,539.957252 218.777687,530.593081 L218.07732,522.448069 C212.707837,522.681525 206.897383,522.92795 202.228267,522.92795 C196.638299,522.92795 191.268816,522.668555 186.379215,522.448069 L185.678847,530.593081 C184.97848,539.957252 177.987777,546.182739 169.375853,546.182739 L167.508207,546.182739 C131.166925,542.82357 94.125277,531.319388 62.9070529,514.769968 C60.8189207,521.968188 60.3520092,524.60105 60.5724952,527.960219 L80.1438704,536.844508 C83.6457069,538.284152 85.9802646,542.110233 85.9802646,546.195709 C85.9802646,551.954284 81.5575748,556.753097 75.9676061,556.753097 L27.9665063,556.753097 C27.0326832,556.753097 19.8214939,556.506672 19.8214939,556.506672 C10.496233,556.506672 0.0166629566,544.98952 0.0166629566,528.673556 C0.0166629566,528.673556 -0.917160115,515.24985 11.1966003,491.982091 C12.3638791,489.569715 14.4520113,485.97709 15.6192901,483.344228 C15.6192901,483.344228 13.2977022,481.178277 12.1304234,479.751603 C7.92821954,475.912553 5.60663162,470.387433 5.13972009,462.008965 C5.13972009,457.210152 4.67280855,451.931457 5.13972009,446.886219 C6.29402916,432.256324 5.13972009,421.219054 3.27207394,410.42821 C3.27207394,409.701903 3.03861817,408.988566 3.03861817,408.275229 C0.0166629566,386.926996 13.751644,371.570794 30.7679755,373.490319 C42.4148244,374.683538 46.8375142,379.235925 55.2289521,390.506651 C64.0873015,402.257258 74.09996,414.500716 85.0464415,426.004897 C93.904791,435.122642 90.6364102,450.465874 87.614455,456.950756 C87.3809992,457.664093 86.9140877,458.623856 86.4471761,460.0635 C99.4947596,466.068501 113.24271,471.10077 127.911514,475.173276 L136.289983,427.911453 L268.153582,427.911453 L276.778476,475.160306 L276.778476,475.160306 Z" id="Shape" fill="#000000" fill-rule="nonzero"></path>
                <path d="M48.4717046,391.686899 C58.2329487,405.250932 68.9793292,418.078096 80.6237517,430.064434 C86.6806319,436.782772 84.1255882,448.286953 82.4913979,452.852311 C79.7028984,459.324223 67.1092567,482.591982 60.8318905,498.907946 C55.9422891,511.37189 53.6077315,521.215941 53.6077315,524.808566 L32.8690774,515.690822 C36.6043697,519.763328 37.7586788,528.167735 37.7586788,528.167735 C38.4590461,540.398224 31.4683428,550.229305 23.0898747,550.229305 C14.7114066,550.229305 6.77391046,541.357986 7.02033599,528.167735 L7.02033599,527.441429 C7.02033599,520.489635 10.5092027,508.025691 17.499906,493.862707 C26.5917112,475.873643 40.1062062,457.171242 45.6832051,439.895516 C46.850484,436.302891 47.5508513,433.177177 48.4846743,430.064434 C50.1995747,421.419844 49.5544295,412.472934 46.6170282,404.163813 C42.4277941,392.893088 32.8690774,385.448443 24.7240651,387.614393 C16.5660829,389.767374 13.310672,401.05107 17.2664503,412.555251 C18.9006406,417.120608 21.4556843,422.152877 25.4244324,425.991928 C30.3140337,431.504078 38.2385601,437.742535 39.6392947,438.935753 C35.6705466,450.932785 26.3582554,463.163274 19.6010079,476.833406 C18.2002733,475.640188 18.6671849,476.120069 17.499906,474.926851 C16.0662111,473.629297 14.879732,472.08248 13.9980695,470.361493 C12.8307907,468.208512 11.6635118,465.095769 11.2095701,459.324223 C10.9761143,456.691361 10.9761143,454.758866 10.9761143,451.892548 C11.6764816,446.626824 11.9099374,441.101704 11.9099374,435.356098 C11.9099374,425.758472 10.9761143,416.394302 9.57537968,408.482745 C9.57537968,407.769408 9.34192391,407.289527 9.34192391,406.809645 C7.240822,391.453444 15.8657156,379.469381 28.4463876,379.702837 C37.745709,379.936293 43.1151917,384.735106 48.4717046,391.686899 L48.4717046,391.686899 Z M384.881466,489.790201 C372.300794,499.387827 361.354313,506.586047 348.527215,513.537841 C350.161406,519.529872 350.861773,522.42213 350.861773,524.808566 L371.600427,515.690822 C367.878104,519.763328 366.710826,528.167735 366.710826,528.167735 C366.010458,540.398224 373.001161,550.229305 381.392599,550.229305 C389.771067,550.229305 397.695594,541.357986 397.462138,528.167735 L397.462138,527.441429 C397.462138,520.489635 393.960302,508.025691 386.969598,493.862707 C385.802319,491.709726 386.048745,491.956152 384.881466,489.790201 L384.881466,489.790201 Z M227.389611,489.790201 L221.799642,493.382826 L225.055053,530.320716 C225.521965,535.599411 230.178111,540.164768 234.834256,539.684887 C293.314926,532.966548 344.804893,511.37189 383.00085,478.519475 L387.190084,474.926851 C388.590819,473.487207 389.758098,472.047563 390.445495,470.361493 C391.612774,468.208512 392.780053,465.095769 393.246964,459.324223 C393.48042,456.691361 393.48042,454.758866 393.48042,451.892548 C392.806769,446.406848 392.494821,440.882764 392.546597,435.356098 C392.546597,425.758472 393.48042,416.394302 394.881155,408.482745 C395.114611,407.769408 395.114611,407.289527 395.114611,406.809645 C397.215713,391.453444 388.590819,379.469381 376.010147,379.702837 C366.684886,379.949262 361.328373,384.748075 355.97186,391.699869 C346.206703,405.260861 335.460556,418.087746 323.819813,430.077404 C317.762933,436.795742 320.317977,448.299923 321.952167,452.86528 C322.419078,453.825043 323.119446,455.264687 323.819813,457.184212 C335.682281,451.118271 347.056301,444.141222 357.839506,436.31586 C357.18594,434.270804 356.640456,432.192767 356.205316,430.090373 C354.584095,423.372035 354.33767,414.500716 358.072962,404.189753 C362.04171,392.919027 371.587457,385.474382 379.745439,387.640333 C387.903421,389.793314 391.158832,401.077009 387.203054,412.581191 C385.581833,417.146548 383.01382,422.178817 379.058042,426.017867 C374.401896,431.530017 366.243914,438.0149 364.843179,438.961693 C331.990765,463.669095 290.059515,481.178277 244.159517,489.102804 C237.869181,490.023657 232.279213,490.503538 227.389611,489.790201 L227.389611,489.790201 Z M182.656892,493.382826 L179.388511,530.320716 C178.9216,535.599411 174.265454,540.164768 169.609309,539.684887 C131.867293,535.365955 97.8475995,525.054992 67.7966542,509.465334 C68.4970215,506.819502 68.7304773,504.666521 69.8977562,501.553778 C74.5539017,490.036627 79.9104146,479.012326 86.4342064,466.535413 C109.727904,477.339227 133.034572,484.291021 160.284048,489.089834 C166.574384,490.036627 172.397808,490.516508 177.287409,489.803171 L182.656892,493.382826 L182.656892,493.382826 Z" id="Shape" fill="#FFFFFF"></path>
                <path d="M342.937246,496.275084 C349.694494,493.14937 352.262507,485.004358 348.994127,478.27305 C345.972171,471.554712 338.281101,468.441968 331.757309,471.554712 C325.000062,474.913881 322.665504,483.071863 325.700429,489.777231 C328.96881,496.49557 336.646911,499.387827 342.937246,496.275084 Z M330.369544,487.144369 C327.801531,481.865675 328.501898,477.079831 332.924588,474.913881 C337.126792,472.7609 342.016393,475.393762 344.571437,480.659487 C346.905995,485.704725 345.972171,491.216875 341.782937,493.1364 C337.347278,495.302351 332.924588,492.902945 330.369544,487.144369 Z M302.873643,489.076864 L305.441656,488.117101 C311.498536,485.704725 314.987403,488.584013 317.088505,494.109133 C319.189607,500.33462 317.088505,504.420096 311.731992,506.586047 C311.031625,506.819502 310.097802,506.819502 309.63089,507.312353 L302.873643,489.076864 Z M311.498536,510.178671 C313.586669,509.452365 317.321961,508.025691 318.943181,506.106165 C323.132416,502.033659 323.365871,496.741995 321.744651,492.423063 C320.577372,489.076864 317.788872,484.744963 313.586669,483.318288 C311.719022,482.838407 309.63089,482.838407 303.57401,485.224844 L296.583307,487.870676 C297.51713,488.584013 297.971072,489.076864 299.15132,491.943182 L304.741289,507.532839 C305.908568,510.645583 305.675112,511.125464 305.675112,512.318683 L311.498536,510.178671 L311.498536,510.178671 Z M80.3902959,504.407126 C81.5575748,505.133433 83.6457069,506.806533 86.2137204,507.766295 C90.6364102,509.205939 95.5389813,506.573077 96.7062602,502.500571 C99.0278481,495.548777 89.0151896,491.956152 90.64938,487.390795 C91.1162915,485.704725 92.9839376,484.744963 95.0720698,485.471269 C97.4066275,486.197576 98.5739063,488.117101 99.2742736,489.31032 L100.895494,485.004358 C99.4099958,483.878372 97.7610785,482.986119 96.0058929,482.358526 C91.583203,480.672456 87.3809992,483.084833 85.9932344,487.157339 C83.6586767,494.589014 93.904791,497.468302 92.2835703,502.267115 C91.583203,504.17367 89.4821011,505.146403 86.9270574,504.420096 C84.359044,503.473303 83.4252209,501.787234 82.0374561,499.621283 L80.3902959,504.407126 L80.3902959,504.407126 Z M113.229741,516.650584 L115.797754,512.811534 C113.930108,512.811534 112.062462,512.811534 108.340139,511.605346 C107.873228,511.35892 107.17286,511.138434 106.472493,510.892009 L109.027537,503.213908 C109.727904,503.213908 110.428271,503.460333 111.128639,503.680819 C112.516404,504.160701 113.683682,504.887007 115.084417,505.600344 L117.418975,502.241175 L109.96136,499.841769 L112.295918,492.397124 C112.762829,492.397124 113.463196,492.643549 113.917138,492.877005 C117.172549,493.836768 117.418975,494.316649 119.273651,495.522837 L121.608209,491.930212 L108.093714,487.364855 C108.32717,488.558073 108.32717,489.27141 107.393346,492.163668 L102.503745,508.220237 C101.569922,511.112495 101.11598,511.579406 100.402643,512.539169 L113.229741,516.650584 L113.229741,516.650584 Z M134.668762,522.642616 L136.99035,518.816535 C135.122704,518.816535 133.488513,518.816535 129.532735,517.856772 C129.065824,517.610347 128.365456,517.376891 127.898545,517.130465 L129.766191,509.452365 C130.700014,509.452365 131.387411,509.69879 132.100749,509.932246 C133.488513,510.178671 134.668762,510.892009 136.056527,511.605346 L138.391085,508.025691 L130.700014,505.85974 L132.801116,498.66152 C133.268027,498.66152 133.968395,498.907946 134.422336,498.907946 C137.677747,499.867708 138.157629,500.101164 139.778849,501.307352 L142.113407,497.468302 L128.365456,493.629251 C128.598912,495.068895 128.832368,495.548777 127.898545,498.67449 L123.709311,514.744029 C123.008943,517.856772 122.542032,518.103198 121.608209,519.049991 L134.668762,522.642616 Z M150.271389,526.24821 C149.804478,525.042022 149.571022,524.562141 150.271389,521.449397 L151.672124,514.017722 L158.662827,528.167735 L164.719707,529.373924 L156.561725,513.537841 L165.65353,505.626284 C167.054265,504.18664 168.221544,503.706759 168.908941,503.226878 L162.618605,502.020689 L162.618605,502.980452 C162.38515,503.460333 161.217871,504.407126 160.750959,504.887007 L151.89261,512.318683 L153.280375,505.120463 C153.980742,502.00772 154.214198,501.527838 155.148021,500.555106 L148.857685,499.361888 C149.091141,500.555106 149.324596,501.034987 148.857685,504.147731 L145.83573,520.463695 C145.135362,523.576439 144.668451,524.05632 143.968083,525.029052 L150.271389,526.24821 L150.271389,526.24821 Z M243.005208,528.167735 L247.427898,527.441429 C247.427898,525.288448 248.128265,519.296416 248.595177,514.497603 L254.198115,526.24821 L258.387349,525.521903 C258.620805,522.889041 259.087717,518.323684 259.788084,513.524871 L261.188818,502.980452 C261.65573,500.33462 261.889186,499.141402 262.356097,497.935213 L256.986615,498.894976 C257.208442,499.263532 257.366308,499.666966 257.453526,500.088194 C257.686982,500.814501 257.453526,502.254145 257.453526,503.460333 L255.819336,518.323684 L255.58588,518.55714 L249.062088,504.887007 C248.569339,503.9726 248.177926,503.007114 247.894809,502.00772 L247.894809,500.568076 L241.604473,501.774264 C242.304841,502.500571 243.005208,503.680819 244.392973,506.339621 L245.793708,509.218909 L244.392973,520.489635 L237.869181,507.545809 C237.40227,506.339621 236.935358,505.379858 236.701902,504.17367 C236.468447,503.693789 236.701902,502.980452 236.701902,502.746996 L230.178111,503.693789 C231.111934,504.899977 231.812301,505.85974 233.200066,508.492602 L243.005208,528.167735 L243.005208,528.167735 Z M278.646122,521.202972 C277.712299,520.243209 277.245387,519.763328 276.778476,516.88404 L273.043184,500.568076 C272.576272,497.455332 272.576272,496.729025 273.043184,495.535807 L266.752848,496.962481 C267.686671,497.922244 267.920126,498.402125 268.620494,501.527838 L272.12233,517.843803 C272.822698,520.956546 272.589242,521.436427 272.355786,522.629646 L278.646122,521.202972 Z M285.857311,518.55714 C287.491502,518.55714 290.059515,518.55714 292.614559,517.843803 C296.803793,516.157733 299.371806,511.35892 297.971072,507.052958 C295.636514,500.088194 285.857311,503.460333 284.223121,498.894976 C283.756209,497.208907 284.923488,495.302351 286.778165,494.576044 C289.112722,493.849737 290.980368,494.576044 292.368133,495.055926 L291.200854,490.490568 C290.046545,490.490568 287.711988,490.490568 285.610886,491.216875 C281.421652,492.889975 279.087094,497.208907 280.474859,501.281413 C282.809416,508.713088 292.601589,504.874038 294.22281,509.439395 C294.923177,511.592376 293.522442,513.758327 291.187885,514.484633 C288.399385,515.431426 286.765195,514.731059 284.430637,513.758327 L285.857311,518.55714 L285.857311,518.55714 Z M363.208989,483.318288 C362.508622,482.838407 361.808254,482.358526 361.341343,481.398763 C360.874431,480.672456 360.40752,479.972089 359.940608,478.999357 L354.35064,467.728631 L370.420178,478.519475 L367.631679,456.937787 L367.631679,456.691361 L375.089294,467.962087 C376.95694,470.841375 377.657307,472.034593 377.657307,473.707693 L383.01382,470.115068 C381.392599,469.168275 380.445807,468.208512 378.824586,465.56268 L370.199692,452.852311 C368.565502,450.219448 368.565502,449.493142 368.565502,448.286953 L363.442445,451.646123 C363.675901,452.605885 363.909356,453.332192 363.909356,454.291955 L366.230944,470.348524 L350.848803,460.283986 L345.725746,463.643155 C346.893025,463.889581 347.826848,464.369462 348.760671,464.849343 L356.672228,480.439001 C358.059992,483.071863 358.539874,483.79817 358.773329,486.184606 L363.208989,483.318288 L363.208989,483.318288 Z" id="Shape" fill="#000000" fill-rule="nonzero"></path>
                <path d="M392.339081,145.598581 C391.638714,189.254809 401.651372,362.193654 202.228267,483.318288 C2.80516241,362.193654 12.8178209,189.254809 12.1174536,145.598581 L12.1174536,8.52651283e-14 L392.326111,8.52651283e-14 L392.326111,145.598581 L392.339081,145.598581 L392.339081,145.598581 Z" id="Path" stroke="#000000" stroke-width="35.744672" fill="#000000" fill-rule="nonzero"></path>
                <path d="M392.339081,145.598581 C391.638714,189.254809 401.651372,362.193654 202.228267,483.318288 C2.80516241,362.193654 12.8178209,189.254809 12.1174536,145.598581 L12.1174536,8.52651283e-14 L392.326111,8.52651283e-14 L392.326111,145.598581 L392.339081,145.598581 L392.339081,145.598581 Z" id="Path" stroke="#FFFFFF" stroke-width="21.5816888" fill="#000000" fill-rule="nonzero"></path>
                <path d="M392.339081,145.598581 C391.638714,189.254809 401.651372,362.193654 202.228267,483.318288 C2.80516241,362.193654 12.8178209,189.254809 12.1174536,145.598581 L12.1174536,8.52651283e-14 L392.326111,8.52651283e-14 L392.326111,145.598581 L392.339081,145.598581 L392.339081,145.598581 Z" id="Path" fill="#294A93"></path>
                <path d="M44.969868,297.422648 L202.228267,145.585611 L359.486666,297.422648 C328.034987,372.984499 269.787773,432.217415 202.228267,474.187574 C134.668762,432.217415 76.4215479,372.971529 44.969868,297.422648 Z" id="Path" fill="#D2B22C"></path>
                <path d="M360.887401,65.2508871 C360.887401,65.2508871 363.922326,65.2508871 369.512295,65.9642242 L369.979206,65.9642242 C375.569175,66.2106497 376.269542,63.3313619 376.269542,63.3313619 C375.150828,60.7460212 372.768259,58.9283917 369.979206,58.5325489 L369.745751,58.5325489 C363.922326,58.0526676 360.887401,58.0526676 360.887401,58.0526676 L360.887401,65.2508871 L360.887401,65.2508871 Z M360.887401,93.7843699 C360.887401,93.7843699 363.922326,93.7843699 369.512295,94.5106767 L369.979206,94.5106767 C375.569175,94.7571022 376.269542,91.8648447 376.269542,91.8648447 C374.881777,88.7521011 372.080308,87.2994874 369.979206,87.2994874 L369.745751,87.0660317 C363.922326,86.5861504 360.887401,86.5861504 360.887401,86.5861504 L360.887401,93.7843699 Z M360.887401,122.330822 C360.887401,122.330822 363.922326,122.330822 369.512295,123.044159 L369.979206,123.044159 C375.569175,123.290585 376.269542,120.411297 376.269542,120.411297 C374.881777,117.298554 372.080308,115.84594 369.979206,115.84594 L369.745751,115.84594 C363.922326,115.119633 360.887401,115.119633 360.887401,115.119633 L360.887401,122.330822 Z M222.966921,65.2508871 C222.966921,65.2508871 220.865819,65.2508871 216.676585,65.7307684 L216.676585,66.4441055 C216.676585,67.1704123 216.209674,67.6502936 215.742762,67.6502936 L208.985515,68.3636307 C208.285147,68.3636307 207.818236,67.8837494 207.818236,67.1704123 L207.818236,58.2861234 C207.818236,57.8062421 208.285147,57.3263608 208.752059,57.3263608 L215.509307,56.6130237 C216.209674,56.6130237 216.663616,57.092905 216.663616,57.5727863 L216.663616,58.2861234 C220.85285,58.0526676 222.953952,58.0526676 222.953952,58.0526676 L222.953952,65.2508871 L222.966921,65.2508871 L222.966921,65.2508871 Z M222.966921,93.7843699 C222.966921,93.7843699 220.865819,93.7843699 216.676585,94.2642512 L216.676585,95.2240138 C216.676585,95.7038951 216.209674,96.1837764 215.742762,96.1837764 L208.985515,96.9100832 C208.285147,96.9100832 207.818236,96.4302019 207.818236,95.9503206 L207.818236,86.8325759 C207.818236,86.3526946 208.285147,85.8728133 208.752059,85.8728133 L215.509307,85.1465065 C216.209674,85.1465065 216.663616,85.6263878 216.663616,86.1062691 L216.663616,86.8325759 C220.85285,86.5861504 222.953952,86.5861504 222.953952,86.5861504 L222.953952,93.7843699 L222.966921,93.7843699 Z M222.966921,122.330822 C222.966921,122.330822 220.865819,122.330822 216.676585,122.810704 L216.676585,123.770466 C216.676585,124.250348 216.209674,124.730229 215.742762,124.730229 L208.985515,125.456536 C208.285147,125.456536 207.818236,124.976654 207.818236,124.496773 L207.818236,115.625454 C207.818236,114.899147 208.285147,114.419266 208.752059,114.419266 L215.509307,113.705929 C216.209674,113.705929 216.663616,114.18581 216.663616,114.665691 L216.663616,115.625454 C220.85285,115.132603 222.953952,115.132603 222.953952,115.132603 L222.953952,122.330822 L222.966921,122.330822 Z M181.502583,65.2508871 C181.502583,65.2508871 184.291082,65.2508871 189.881051,65.9642242 L190.347963,65.9642242 C195.937931,66.2106497 196.638299,63.3313619 196.638299,63.3313619 C195.567201,60.709173 193.159973,58.8727307 190.347963,58.5325489 L190.101537,58.5325489 C184.278113,58.0526676 181.489613,58.0526676 181.489613,58.0526676 L181.489613,65.2508871 L181.502583,65.2508871 L181.502583,65.2508871 Z M181.502583,93.7843699 C181.502583,93.7843699 184.291082,93.7843699 189.881051,94.5106767 L190.347963,94.5106767 C195.937931,94.7571022 196.638299,91.8648447 196.638299,91.8648447 C195.635803,89.2276801 193.165981,87.4351495 190.347963,87.2994874 L190.101537,87.0660317 C184.278113,86.5861504 181.489613,86.5861504 181.489613,86.5861504 L181.489613,93.7843699 L181.502583,93.7843699 L181.502583,93.7843699 Z M181.502583,122.330822 C181.502583,122.330822 184.291082,122.330822 189.881051,123.044159 L190.347963,123.044159 C195.937931,123.290585 196.638299,120.411297 196.638299,120.411297 C195.635803,117.774133 193.165981,115.981602 190.347963,115.84594 L190.101537,115.84594 C184.278113,115.119633 181.489613,115.119633 181.489613,115.119633 L181.489613,122.330822 L181.502583,122.330822 L181.502583,122.330822 Z M43.5691334,65.2508871 C43.5691334,65.2508871 41.2475455,65.2508871 37.0453417,65.7307684 L37.0453417,66.4441055 C37.0453417,67.1704123 36.5784302,67.6502936 36.1115186,67.6502936 L29.3542711,68.3636307 C28.6539038,68.3636307 28.1869923,67.8837494 28.1869923,67.1704123 L28.1869923,58.2861234 C28.1869923,57.8062421 28.6539038,57.3263608 29.1208154,57.3263608 L35.8780629,56.6130237 C36.5784302,56.6130237 37.0453417,57.092905 37.0453417,57.5727863 L37.0453417,58.2861234 C41.2475455,58.0526676 43.5691334,58.0526676 43.5691334,58.0526676 L43.5691334,65.2508871 L43.5691334,65.2508871 Z M43.5691334,93.7843699 C43.5691334,93.7843699 41.2475455,93.7843699 37.0453417,94.2642512 L37.0453417,95.2240138 C37.0453417,95.7038951 36.5784302,96.1837764 36.1115186,96.1837764 L29.3542711,96.9100832 C28.6539038,96.9100832 28.1869923,96.4302019 28.1869923,95.9503206 L28.1869923,86.8325759 C28.1869923,86.3526946 28.6539038,85.8728133 29.1208154,85.8728133 L35.8780629,85.1465065 C36.5784302,85.1465065 37.0453417,85.6263878 37.0453417,86.1062691 L37.0453417,86.8325759 C41.2475455,86.5861504 43.5691334,86.5861504 43.5691334,86.5861504 L43.5691334,93.7843699 Z M43.5691334,122.330822 C43.5691334,122.330822 41.2475455,122.330822 37.0453417,122.810704 L37.0453417,123.770466 C37.0453417,124.250348 36.5784302,124.730229 36.1115186,124.730229 L29.3542711,125.456536 C28.6539038,125.456536 28.1869923,124.976654 28.1869923,124.496773 L28.1869923,115.625454 C28.1869923,114.899147 28.6539038,114.419266 29.1208154,114.419266 L35.8780629,113.705929 C36.5784302,113.705929 37.0453417,114.18581 37.0453417,114.665691 L37.0453417,115.625454 C41.2475455,115.132603 43.5691334,115.132603 43.5691334,115.132603 L43.5691334,122.330822 Z M291.927161,47.7417045 C283.068812,38.8703854 274.677374,38.3905041 274.677374,38.3905041 C253.93872,36.4709789 226.222332,43.4227728 226.222332,43.4227728 L226.222332,138.400361 C226.222332,138.400361 253.93872,131.448567 274.677374,133.121667 C274.677374,133.121667 277.011932,135.521073 277.712299,136.480836 C279.244274,138.309344 281.713291,139.057685 284.002635,138.387391 C287.258046,137.427629 287.504471,136.947747 291.927161,136.947747 C296.583307,136.947747 296.816763,137.427629 300.072174,138.387391 C302.361432,139.043787 304.822889,138.297737 306.36251,136.480836 C307.062877,135.521073 309.384465,133.121667 309.384465,133.121667 C330.123119,131.448567 357.839506,138.400361 357.839506,138.400361 L357.839506,43.4227728 C357.839506,43.4227728 330.110149,36.4709789 309.384465,38.3905041 C309.397435,38.3775343 301.005997,38.8574156 291.927161,47.7417045 Z" id="Shape" fill="#FFFFFF"></path>
                <path d="M291.927161,47.0153977 L242.538297,38.1440785 L232.525638,51.5807549 L232.525638,130.73523 C232.525638,130.73523 246.7405,127.376061 255.118968,126.662724 C263.276951,125.702961 278.17921,125.936417 282.848326,132.421299 C284.672213,129.118398 288.167485,127.089046 291.940131,127.142605 C296.129365,127.142605 299.631202,129.308556 301.252422,132.421299 C305.908568,125.936417 320.823797,125.702961 328.981779,126.662724 C337.360248,127.376061 351.57511,130.73523 351.57511,130.73523 L351.57511,51.5807549 L341.562451,38.1440785 L291.927161,47.0153977 L291.927161,47.0153977 Z" id="Path" fill="#000000" fill-rule="nonzero"></path>
                <path d="M291.927161,124.250348 C287.958413,118.011891 273.523065,117.052128 264.911141,117.052128 C256.532673,117.052128 244.872854,118.725228 244.872854,118.725228 L240.216709,121.124634 L240.216709,33.8251468 C240.216709,33.8251468 247.674323,38.3775343 256.532673,36.9378904 C265.391022,35.4982465 282.160928,29.9860964 291.940131,41.7367034 C301.952789,29.9860964 318.735665,35.4982465 327.594015,36.9378904 C336.452364,38.3775343 343.897009,32.3725332 343.897009,32.3725332 L343.897009,121.124634 L339.227894,118.725228 C339.227894,118.725228 327.594015,117.052128 319.202577,117.052128 C310.564713,117.052128 296.116395,118.011891 291.927161,124.250348 L291.927161,124.250348 Z" id="Path" fill="#FFFFFF"></path>
                <path d="M229.711199,132.39536 L245.793708,114.406296 M354.130154,132.39536 L338.060615,114.406296" id="Shape" stroke="#FFFFFF" stroke-width="3.11274357"></path>
                <path d="M112.308887,47.7417045 C103.450538,38.8703854 95.0591,38.3905041 95.0591,38.3905041 C74.320446,36.4580091 46.6040584,43.4227728 46.6040584,43.4227728 L46.6040584,138.400361 C46.6040584,138.400361 74.3334157,131.448567 95.0591,133.121667 C95.0591,133.121667 97.3936577,135.521073 98.094025,136.480836 C99.6260003,138.309344 102.095017,139.057685 104.384361,138.387391 C107.639772,137.427629 107.873228,136.947747 112.308887,136.947747 C116.965033,136.947747 117.198489,137.427629 120.4539,138.387391 C123.488825,139.347154 125.823382,137.427629 126.744236,136.480836 C127.444603,135.521073 129.779161,133.121667 129.779161,133.121667 C150.517815,131.448567 178.234202,138.400361 178.234202,138.400361 L178.234202,43.4227728 C178.234202,43.4227728 150.504845,36.4709789 129.779161,38.3905041 C129.779161,38.3775343 121.387723,38.8574156 112.308887,47.7417045 L112.308887,47.7417045 Z" id="Path" fill="#FFFFFF"></path>
                <path d="M112.308887,47.0153977 L62.9070529,38.1440785 L52.8943944,47.9751603 L52.8943944,130.72226 C52.8943944,130.72226 67.1092567,127.363091 75.5006946,126.649754 C83.6586767,125.689991 98.5609365,125.923447 103.230052,132.40833 C105.051806,129.103341 108.548456,127.073189 112.321857,127.129635 C116.511091,127.129635 119.999958,129.295586 121.634148,132.40833 C126.290294,125.923447 140.972068,125.689991 149.363506,126.649754 C157.741974,127.363091 171.969806,130.72226 171.969806,130.72226 L171.969806,47.9751603 L161.957147,38.1440785 L112.308887,47.0153977 Z" id="Path" fill="#000000" fill-rule="nonzero"></path>
                <path d="M112.308887,124.250348 C108.340139,118.011891 93.904791,117.052128 85.2798973,117.052128 C76.6550037,117.052128 65.2416106,118.725228 65.2416106,118.725228 L60.3520092,121.137604 L60.3520092,33.8251468 C60.3520092,33.8251468 68.0430798,38.3775343 76.8884594,36.9378904 C85.7468088,35.4982465 102.516715,29.9860964 112.295918,41.7367034 C122.308576,29.9860964 139.078482,35.4982465 147.936831,36.9378904 C156.795181,38.3775343 164.239826,32.3725332 164.239826,32.3725332 L164.239826,121.124634 L159.58368,118.725228 C159.58368,118.725228 147.936831,117.052128 139.545394,117.052128 C130.946439,117.052128 116.498121,118.011891 112.308887,124.250348 L112.308887,124.250348 Z" id="Path" fill="#FFFFFF"></path>
                <path d="M50.0929252,132.39536 L66.3959196,114.406296 M174.732366,132.39536 L158.429371,114.406296" id="Shape" stroke="#FFFFFF" stroke-width="3.11274357"></path>
                <line x1="112.295918" y1="40.543485" x2="112.295918" y2="125.21011" id="Path" stroke="#000000" stroke-width="2.63286227"></line>
                <path d="M67.5631985,111.060097 C67.3297427,110.33379 67.0962869,110.100334 67.0962869,108.180809 L67.0962869,104.108303 L72.9197114,103.14854 L72.9197114,107.221046 C72.9197114,108.894146 72.9197114,109.386997 72.4527998,110.100334 L75.9546364,109.386997 C75.7211806,108.907116 75.4877248,108.66069 75.4877248,106.741165 L75.4877248,96.6636577 C75.4877248,94.7571022 75.7211806,94.2642512 75.9546364,93.5509141 L72.4527998,94.2772209 C72.9197114,94.990558 72.9197114,95.2369835 72.9197114,97.1565087 L72.9197114,100.995559 L67.0962869,101.955322 L67.0962869,98.1162713 C67.0962869,96.1967461 67.3297427,95.9503206 67.5631985,95.2369835 L64.3077875,95.7168648 C64.5412433,96.4302019 64.774699,96.6766274 64.774699,98.5961526 L64.774699,108.66069 C64.774699,110.580215 64.5412433,110.826641 64.3077875,111.539978 L67.5631985,111.060097 L67.5631985,111.060097 Z M86.9140877,108.894146 L89.9360429,108.894146 C89.7025871,108.414265 89.2356756,107.700928 89.2356756,105.781402 L89.2356756,95.9503206 C89.2356756,94.0307954 89.4691314,93.5509141 89.7025871,93.0710328 L86.4342064,93.0710328 C86.6676621,93.7973396 86.9011179,94.0307954 86.9011179,95.9503206 L86.9011179,102.188778 C86.9011179,104.341758 86.6676621,107.221046 83.8661929,107.467472 C80.8442377,107.467472 80.8442377,103.628421 80.8442377,101.955322 L80.8442377,96.4302019 C80.8442377,94.5236465 81.0776935,94.0307954 81.3111493,93.3174583 L78.0557383,93.5638839 C78.289194,94.2901907 78.5226498,94.5236465 78.5226498,96.4431717 L78.5226498,104.354728 C78.5226498,106.520679 79.4435031,109.633423 82.7118839,109.399967 C84.57953,109.399967 86.2137204,108.193779 86.9140877,107.726867 L86.9140877,108.894146 L86.9140877,108.894146 Z M94.5921885,109.140571 C94.3587327,108.66069 94.3587327,108.180809 94.3587327,107.700928 L94.3587327,106.027828 L95.0591,98.3497271 L95.0591,98.5961526 L99.2613038,110.34676 L104.384361,99.5559153 L104.384361,107.713897 C104.617817,109.633423 104.384361,110.593185 103.917449,111.306522 L107.652742,112.032829 C106.952374,110.839611 106.952374,110.113304 106.952374,108.193779 L106.705949,98.8425782 C106.705949,96.923053 106.952374,96.6766274 107.17286,96.1967461 L103.917449,95.4834091 C103.683994,95.9632904 103.683994,96.4431717 103.450538,96.6766274 L99.7152456,104.83461 L95.7594673,93.5638839 L92.4910866,92.837577 C92.7245423,93.5638839 93.1914539,94.2772209 93.4249097,94.7571022 L92.4910866,105.301521 C92.2706006,106.974621 92.2706006,107.467472 91.803689,108.66069 L94.5921885,109.140571 L94.5921885,109.140571 Z M70.3646677,86.1192388 L70.8315792,83.239951 C69.7144008,83.9620534 68.425198,84.373882 67.0962869,84.4331694 C66.8628312,84.6795949 66.3959196,84.6795949 66.1624639,84.6795949 L66.1624639,79.8807819 C66.6293754,79.6473262 67.0962869,79.6473262 67.3297427,79.4009006 L69.6643004,79.4009006 L70.1182422,77.0014941 L66.1624639,77.7148312 L66.1624639,73.1494739 C66.3959196,72.9160182 66.8628312,72.9160182 67.0962869,72.9160182 C68.7175075,72.4361369 68.9639331,72.6695926 70.1182422,72.9160182 L70.8315792,70.0367304 L63.3739644,71.4763743 C63.6074202,71.9692253 63.840876,72.4361369 63.840876,74.3556621 L63.840876,84.1867439 C63.840876,86.1062691 63.6074202,86.5861504 63.3739644,87.2994874 L70.3646677,86.1192388 Z M73.8535344,81.5538816 C73.8535344,83.7198323 73.8535344,83.9532881 73.6200787,85.1465065 L76.6420339,85.1465065 C76.4085781,84.1867439 76.4085781,83.4734068 76.4085781,81.5538816 L76.4085781,77.7148312 L80.3773262,84.9130507 L83.6327372,84.6666252 C83.1658256,83.9403183 82.4654583,82.9935255 81.2981795,81.3074561 L79.4305333,77.948287 C80.3902959,77.2349499 82.0115166,76.5216128 82.0115166,73.642325 C82.0115166,72.4361369 81.544605,70.996493 80.6107819,70.2831559 C79.9104146,69.5698188 78.9895613,69.0899375 76.6550037,69.0899375 C75.7211806,69.0899375 75.254269,69.3233933 73.3995927,69.3233933 C73.6330484,70.0497001 73.8665042,70.5295814 73.8665042,71.7357696 L73.8665042,81.5538816 L73.8535344,81.5538816 L73.8535344,81.5538816 Z M76.4215479,71.2429185 C77.5888267,71.2429185 79.4435031,71.2429185 79.4435031,74.1222063 C79.4435031,75.8082757 78.2762243,76.7680383 76.8884594,77.0014941 L76.4215479,77.0014941 L76.4215479,71.2429185 L76.4215479,71.2429185 Z M87.3680295,84.6795949 L87.3680295,83.9532881 C87.3680295,83.4734068 87.6014852,82.7600697 87.6014852,82.2801884 L88.3018525,79.6473262 L92.2706006,79.8807819 L93.2044236,82.526614 C93.2044236,83.0064953 93.4378794,83.4863766 93.4378794,83.9662579 C93.4378794,84.2126834 93.2044236,84.6925647 93.2044236,84.9260205 L96.4598346,85.1594762 C95.9762136,84.1816007 95.6605347,83.1293376 95.5260116,82.0467327 L92.2706006,71.0094627 C92.0371448,70.2831559 91.803689,69.5698188 91.803689,69.3233933 L91.803689,69.0899375 L89.0022198,68.843512 L89.4691314,69.5698188 L85.7468088,81.8003071 C85.2798973,83.0064953 84.8129858,83.9662579 84.57953,84.6795949 L87.3680295,84.6795949 L87.3680295,84.6795949 Z M90.4029544,72.6825624 L91.7907193,77.4813754 L89.0022198,77.4813754 L90.4029544,72.6825624 Z M105.318184,87.3124572 L106.018551,84.9130507 C105.084728,84.9130507 104.150905,84.9130507 102.296229,84.4201996 C101.829317,84.4201996 101.595862,84.1867439 101.362406,84.1867439 L101.362406,79.1544751 C101.595862,79.3879309 102.062773,79.3879309 102.529685,79.3879309 C103.230052,79.6343564 103.930419,80.1142377 104.630787,80.594119 L105.331154,78.1947125 L101.362406,77.2349499 L101.362406,72.4361369 C101.595862,72.4361369 101.829317,72.6825624 102.062773,72.6825624 C103.930419,73.1624437 104.163875,73.3958995 105.084728,74.1222063 L105.785096,71.7227998 L98.5609365,69.5568491 C98.7943923,70.2701861 98.7943923,70.7500674 98.7943923,72.6695926 L98.7943923,82.7471 C98.7943923,84.6666252 98.7943923,84.9130507 98.5609365,85.3799622 L105.318184,87.3124572 L105.318184,87.3124572 Z M78.7561056,60.4520741 L79.6899286,57.5727863 C78.9895613,57.8192119 77.5888267,58.5325489 75.7211806,58.7660047 L73.8535344,59.0124302 L73.8535344,48.2215858 C73.8535344,46.3020606 74.0869902,45.8221793 74.320446,45.1088423 L70.3646677,45.5887236 C70.8315792,46.3020606 70.8315792,46.5355164 70.8315792,48.4680114 L70.8315792,58.5325489 C70.8315792,59.7387371 70.5851537,60.9319554 70.1182422,61.4118367 L78.7561056,60.4520741 L78.7561056,60.4520741 Z M86.2007506,60.2056486 C85.9672948,59.4793418 85.7338391,59.245886 85.7338391,57.3263608 L85.7338391,47.2488535 C85.7338391,45.3293283 85.9672948,45.0958725 86.2007506,44.3695657 L82.2449723,44.1231401 C82.7118839,44.849447 82.9453396,45.3163585 82.9453396,47.2358837 L82.9453396,57.0669655 C82.9453396,58.9864907 82.7118839,59.466372 82.2449723,59.9462533 L86.2007506,60.2056486 L86.2007506,60.2056486 Z M97.3936577,61.1654112 C96.9267462,59.7257673 96.6932904,59.245886 96.6932904,56.8464795 L96.6932904,47.2488535 C98.5609365,47.495279 99.0148783,47.7287348 100.882524,48.2086161 L101.582892,45.8092096 L90.1694987,44.3695657 L89.2486454,47.0024279 C91.1162915,46.7689722 92.0371448,46.7689722 93.904791,46.7689722 L93.904791,56.600054 C93.904791,58.9994605 93.904791,59.2329162 93.2044236,60.4261346 L97.3936577,61.1654112 Z M133.268027,109.140571 L134.20185,106.261284 C132.726819,106.917021 131.153588,107.324571 129.545705,107.467472 C129.078793,107.467472 128.611882,107.713897 128.378426,107.713897 L128.378426,102.681629 C128.845338,102.681629 129.312249,102.681629 129.779161,102.435203 C130.712984,102.435203 131.400381,102.435203 132.334204,102.681629 L133.268027,100.035797 L128.378426,100.762103 L128.378426,95.9632904 L129.312249,95.9632904 C131.413351,95.4834091 131.880263,95.7168648 133.047541,95.9632904 L133.981364,93.3174583 L124.889559,94.2772209 C125.356471,94.990558 125.356471,95.2369835 125.356471,97.1565087 L125.356471,107.234016 C125.356471,109.153541 125.356471,109.399967 124.889559,110.113304 L133.268027,109.140571 L133.268027,109.140571 Z M137.924173,108.414265 C138.857996,108.894146 140.492186,109.374027 142.113407,109.620453 C144.914876,109.620453 147.46992,107.454502 147.46992,104.82164 C147.46992,100.502708 140.712672,100.022827 140.712672,96.9100832 C140.712672,95.9503206 141.879951,95.2369835 143.267716,95.2369835 C144.668451,95.2369835 145.602274,96.1967461 146.523127,96.6766274 L146.523127,94.0437652 C145.388467,93.6286835 144.221574,93.3076793 143.03426,93.0840026 C140.232791,93.0840026 138.144659,95.0035278 138.144659,97.6493598 C138.144659,102.214717 144.668451,102.448173 144.668451,105.327461 C144.668451,106.767105 143.501172,107.493411 141.879951,107.493411 C140.012305,107.246986 139.311938,106.533649 138.144659,105.573886 L137.924173,108.414265 L137.924173,108.414265 Z M122.788457,86.1192388 C122.321546,85.392932 122.08809,85.1594762 122.08809,83.239951 L122.08809,73.1624437 C122.08809,71.2558883 122.321546,71.0094627 122.788457,70.2831559 L118.832679,71.2429185 C119.066135,71.7227998 119.299591,71.9692253 119.299591,73.8757808 L119.299591,83.9532881 C119.299591,85.8728133 119.066135,86.3526946 118.832679,87.0790014 L122.788457,86.1192388 L122.788457,86.1192388 Z M134.20185,84.9130507 C138.62454,84.9130507 142.346863,81.0740003 142.346863,76.5216128 C142.346863,71.9692253 138.611571,68.3636307 134.20185,68.6100562 C129.612783,68.8390244 126.017338,72.6402503 126.043722,77.2349499 C126.043722,81.8003071 129.779161,85.1465065 134.20185,84.9130507 Z M129.312249,76.7550686 C129.312249,73.3958995 130.946439,70.7630372 133.968395,70.7630372 C136.99035,70.5166117 139.091452,73.1624437 139.091452,76.7550686 C139.091452,80.1142377 137.223806,82.7471 134.435306,82.9935255 C131.166925,82.9935255 129.312249,80.594119 129.312249,76.7550686 Z M146.782522,81.5538816 C146.782522,83.7198323 146.549067,83.7198323 146.082155,84.9130507 L150.037933,85.6263878 C149.571022,84.4201996 149.571022,83.9532881 149.571022,81.7873374 L149.571022,77.948287 L154.460623,86.1062691 L158.649857,86.5861504 C157.568792,85.423724 156.632476,84.1346567 155.861358,82.7471 L153.293344,78.9080496 C154.460623,78.4281683 156.3153,77.948287 156.3153,75.0689991 C156.280504,73.6983041 155.696327,72.3990943 154.694079,71.4634045 C153.993712,70.7500674 152.826433,70.0237606 150.037933,69.5568491 C148.637199,69.3104235 148.170287,69.5568491 146.082155,69.0769678 C146.315611,69.7903048 146.782522,70.5166117 146.782522,71.4763743 L146.782522,81.5538816 L146.782522,81.5538816 Z M149.583992,71.7227998 C151.205212,71.7227998 153.306314,72.4361369 153.306314,75.0819689 C153.306314,76.7550686 151.918549,77.7148312 150.284359,77.4813754 C150.050903,77.4813754 149.817447,77.2349499 149.583992,77.2349499 L149.583992,71.7227998 Z M123.255369,61.4118367 C123.255369,61.1654112 123.021913,61.1654112 123.021913,60.6984997 C123.021913,60.2186184 123.255369,59.4923115 123.488825,59.0124302 L124.409678,56.1331424 L129.299279,55.6532611 L130.233102,58.0526676 C130.233102,58.5325489 130.466558,59.0124302 130.466558,59.4923115 C130.466558,59.9721928 130.466558,60.2186184 130.233102,60.6984997 L134.422336,59.9721928 C133.721969,59.245886 133.488513,58.5325489 133.034572,57.3263608 L129.065824,46.7819419 C128.832368,46.0556351 128.598912,45.342298 128.598912,45.1088423 L128.598912,44.8624167 L125.110045,45.342298 L125.576957,46.0686049 L121.154267,58.7789745 C120.823072,59.8743906 120.356905,60.9243559 119.766502,61.9046878 L123.255369,61.4118367 L123.255369,61.4118367 Z M126.977691,48.9349229 L128.378426,53.4873104 L125.123015,53.9671917 L126.977691,48.9349229 L126.977691,48.9349229 Z M141.659465,60.2056486 C141.192554,59.7257673 140.959098,58.7660047 140.959098,56.8464795 L140.959098,49.4018344 L148.416713,60.6855299 L150.971756,60.6855299 L150.971756,48.6884974 C150.971756,46.7689722 151.205212,45.8092096 151.438668,44.849447 L148.183257,44.849447 C148.650169,46.0426653 148.650169,46.2890909 148.650169,48.6884974 L148.650169,55.6402914 L142.126377,46.5225466 C141.426009,45.3293283 141.192554,44.849447 141.192554,44.3695657 L137.236775,44.1231401 C137.703687,44.849447 138.170599,45.562784 138.62454,46.5225466 L138.62454,56.600054 C138.678218,57.7390274 138.519897,58.8780645 138.157629,59.9592231 L141.659465,60.2056486 L141.659465,60.2056486 Z" id="Shape" fill="#000000" fill-rule="nonzero"></path>
                <line x1="291.927161" y1="40.543485" x2="291.927161" y2="124.730229" id="Path" stroke="#000000" stroke-width="2.63286227"></line>
                <path d="M248.815663,96.6636577 L249.51603,96.6636577 C251.617132,96.4172321 252.550955,97.6234203 252.550955,99.0630642 C252.550955,100.736164 251.617132,102.422233 249.295544,102.668659 L248.828632,102.668659 L248.828632,96.6636577 L248.815663,96.6636577 L248.815663,96.6636577 Z M249.295544,110.580215 C249.062088,109.866878 248.828632,109.620453 248.828632,107.700928 L248.828632,104.095333 L249.995911,104.095333 C253.251322,103.615452 255.58588,101.462471 255.58588,98.5831829 C255.58588,95.7038951 253.251322,94.2642512 249.762456,94.7441325 L245.339766,95.2240138 C245.806677,95.9503206 245.806677,96.1837764 245.806677,98.1033016 L245.806677,108.167839 C245.806677,110.087364 245.806677,110.33379 245.339766,111.047127 L249.295544,110.580215 L249.295544,110.580215 Z M258.841291,109.374027 C258.841291,109.127602 258.607835,108.894146 258.607835,108.64772 C258.607835,108.167839 258.841291,107.454502 259.074747,106.974621 L260.00857,104.328789 L264.898171,104.082363 L265.819024,106.494739 C265.819024,106.974621 266.06545,107.687958 266.06545,108.167839 C266.06545,108.414265 266.06545,108.64772 265.819024,109.127602 L270.021228,108.881176 C269.320861,107.921414 269.087405,107.208077 268.620494,106.001888 L264.651746,95.1980742 C264.450067,94.6552752 264.298128,94.0952729 264.197804,93.5249746 L264.197804,93.278549 L260.695967,93.5249746 L261.162879,94.0048559 L256.740189,106.48177 C256.273278,107.908444 255.806366,108.881176 255.352424,109.594513 L258.841291,109.374027 L258.841291,109.374027 Z M262.576583,97.143539 L263.964348,101.942352 L260.708937,101.942352 L262.576583,97.143539 L262.576583,97.143539 Z M273.510095,106.261284 C273.510095,108.427234 273.510095,108.427234 273.043184,109.620453 L276.778476,110.100334 C276.54502,109.140571 276.311564,108.427234 276.311564,106.507709 L276.311564,102.668659 L276.54502,102.668659 L281.201166,110.813671 L285.3904,111.293552 C284.690032,110.33379 283.769179,109.386997 282.6019,107.467472 L280.033887,103.394966 C281.201166,103.14854 283.289298,102.681629 283.289298,99.8023408 C283.193357,98.4437007 282.613559,97.1644638 281.655107,96.1967461 C280.721284,95.2369835 279.554006,94.5236465 276.998962,94.2901907 C275.611197,94.0437652 275.131316,94.0437652 273.043184,93.8103094 C273.276639,94.5366162 273.510095,95.0035278 273.510095,96.2097159 L273.510095,106.261284 L273.510095,106.261284 Z M276.311564,96.1837764 C277.945755,96.4302019 280.046857,96.9100832 280.046857,99.5429455 C280.046857,101.216045 278.879578,102.188778 277.245387,101.942352 L276.311564,101.942352 L276.311564,96.1837764 Z M247.661354,86.3526946 C247.414928,85.6263878 246.960986,84.9130507 246.960986,82.9935255 L246.960986,75.5618502 L247.194442,75.5618502 L254.418601,85.392932 L256.973645,85.1465065 L256.973645,73.1494739 C256.973645,70.996493 257.22007,70.2701861 257.674012,69.3104235 L254.185145,69.5568491 C254.652057,70.7500674 254.652057,70.996493 254.652057,73.3829297 L254.652057,80.5811492 L248.361721,72.4231671 C247.427898,71.4634045 247.194442,70.9835232 247.194442,70.5036419 L243.225694,70.9835232 C243.692606,71.70983 244.159517,72.1767416 244.626429,73.1365042 L244.626429,83.2140115 C244.626429,85.1205669 244.392973,85.8468738 244.159517,86.8066364 L247.661354,86.3526946 L247.661354,86.3526946 Z M265.365083,84.6795949 C265.118657,83.9532881 264.898171,83.7198323 264.898171,81.8003071 L264.898171,71.7357696 C264.898171,69.8162444 265.131627,69.5698188 265.365083,68.8564818 L261.396335,68.8564818 C261.863246,69.5827886 261.863246,69.8162444 261.863246,71.7357696 L261.863246,81.8003071 C261.863246,83.7198323 261.863246,83.9662579 261.396335,84.6795949 L265.365083,84.6795949 Z M268.853949,84.1997136 C269.787773,84.4331694 271.188507,85.1594762 273.043184,85.392932 C274.317773,85.6203054 275.62747,85.2691577 276.617354,84.4346479 C277.607238,83.6001381 278.174802,82.3686832 278.166241,81.0740003 C278.166241,76.7550686 271.642449,75.8082757 271.642449,72.9289879 C271.642449,71.7357696 272.809728,71.0094627 273.977007,71.2558883 C275.377741,71.489344 276.54502,72.4491066 277.232418,72.9289879 L277.465873,70.2831559 C276.53205,70.0367304 275.364771,69.3233933 273.964037,69.0899375 C271.175537,68.843512 268.84098,70.7630372 268.84098,73.4088692 C268.84098,77.9742265 275.598227,78.4541078 275.598227,81.5668514 C275.598227,82.7730395 274.197493,83.4863766 272.796758,83.4863766 C270.929112,83.2529208 270.008259,82.2931582 268.84098,81.0869701 L268.84098,84.1997136 L268.853949,84.1997136 L268.853949,84.1997136 Z M285.403369,87.7923385 C284.936458,87.0790014 284.703002,86.5991201 284.703002,84.9130507 L284.703002,74.8355434 C284.703002,72.9160182 284.949428,72.6695926 285.403369,71.9562556 L281.447591,70.5166117 C281.681047,71.4763743 281.914503,71.7227998 281.914503,73.642325 L281.914503,83.7198323 C281.914503,85.6263878 281.681047,85.8728133 281.447591,86.3526946 L285.403369,87.7923385 L285.403369,87.7923385 Z M246.727531,62.1251738 C246.337538,61.0507098 246.178442,59.9060984 246.260619,58.7660047 L246.260619,51.3343294 L252.550955,61.1654112 L254.885513,60.6855299 L254.885513,48.6884974 C254.885513,46.5225466 254.885513,45.5757538 255.352424,44.849447 L252.317499,45.3293283 C252.784411,46.2890909 252.784411,46.7689722 252.784411,48.9349229 L252.784411,56.1331424 L247.414928,48.2215858 C246.494075,47.2618232 246.494075,47.0153977 246.247649,46.3020606 L242.992238,47.0153977 C243.513686,47.6105533 243.978299,48.2531962 244.380003,48.9349229 L244.380003,58.9994605 C244.4775,60.238404 244.235362,61.4804848 243.679636,62.5920853 L246.727531,62.1251738 L246.727531,62.1251738 Z M264.43126,60.4520741 C268.387038,60.6984997 271.421963,57.092905 271.421963,52.5405175 C271.421963,47.9881301 268.387038,44.3955052 264.664715,44.1490797 C260.708937,43.9026541 257.674012,47.7417045 257.674012,52.0606362 C257.674012,56.6130237 260.708937,60.4520741 264.43126,60.4520741 Z M260.475481,52.0606362 C260.475481,48.4680114 261.863246,46.0686049 264.43126,46.3020606 C266.986303,46.3020606 268.620494,49.1813484 268.620494,52.5275478 C268.620494,55.8867169 266.986303,58.5195792 264.651746,58.5195792 C262.096702,58.2861234 260.475481,55.8867169 260.475481,52.0606362 Z M277.245387,61.1654112 C276.888399,60.0027399 276.730537,58.7880835 276.778476,57.5727863 L276.778476,50.141111 L283.068812,62.3715993 L285.169914,62.8514806 L285.169914,50.8544481 C285.169914,48.7014671 285.403369,47.9751603 285.636825,47.2618232 L282.835356,46.5355164 C283.302268,47.7417045 283.302268,48.2215858 283.302268,50.3745668 L283.302268,57.5727863 L277.712299,47.495279 C277.011932,46.0556351 276.778476,45.8221793 276.778476,45.0958725 L273.510095,44.3695657 C273.977007,45.3293283 274.210462,46.0426653 274.677374,47.0024279 L274.677374,57.0799353 C274.677374,58.9994605 274.677374,59.7257673 274.210462,60.4391044 L277.245387,61.1654112 L277.245387,61.1654112 Z M300.539085,111.293552 C300.305629,110.813671 300.072174,110.580215 300.072174,108.66069 L300.072174,98.5961526 C300.072174,96.6766274 300.318599,96.1837764 300.539085,95.4704393 L297.037249,96.9100832 C297.270704,97.3899645 297.50416,97.63639 297.50416,99.5559153 L297.50416,109.633423 C297.50416,111.552948 297.270704,111.786404 297.037249,112.746166 L300.539085,111.293552 Z M309.397435,109.866878 C308.930523,108.66069 308.697067,108.180809 308.697067,105.794372 L308.697067,96.1967461 C309.926818,95.9628492 311.189638,95.9628492 312.41939,96.1967461 L313.119757,93.5638839 L303.107099,94.770072 L302.186245,97.6493598 C303.497806,96.9961932 304.917398,96.5874561 306.375479,96.4431717 L306.375479,106.040798 C306.375479,108.440204 306.142024,108.920085 305.675112,110.359729 L309.397435,109.866878 Z M323.845753,109.374027 L327.101164,109.374027 C326.867708,109.127602 326.400796,108.167839 326.400796,106.248314 L326.400796,96.4172321 C326.400796,94.7441325 326.634252,94.2642512 326.867708,93.5379443 L323.365871,93.5379443 C323.832783,94.2642512 323.832783,94.4977069 323.832783,96.4172321 L323.832783,102.655689 C323.832783,104.80867 323.599327,107.454502 321.044283,107.454502 C318.009358,107.208077 318.009358,103.381996 318.009358,101.695926 L318.009358,96.1708066 C318.009358,94.2642512 318.242814,93.7714001 318.47627,93.2915188 L314.974433,93.0450933 C315.207889,93.7714001 315.441345,94.0048559 315.441345,95.9243811 L315.441345,103.835938 C315.441345,106.001888 316.375168,109.114632 319.877005,109.348088 C321.744651,109.594513 323.132416,108.388325 323.832783,107.908444 L323.832783,109.374027 L323.845753,109.374027 L323.845753,109.374027 Z M330.369544,106.507709 C330.369544,108.414265 330.369544,108.66069 330.136089,109.866878 L333.3915,110.580215 C333.158044,109.386997 332.924588,108.907116 332.924588,106.741165 L332.924588,102.902115 L337.347278,111.293552 L340.849114,111.773434 C339.94371,110.57558 339.161557,109.289374 338.514557,107.934383 L336.192969,103.861877 C337.347278,103.615452 338.981468,103.13557 338.981468,100.256283 C338.934668,98.9370373 338.445924,97.6717839 337.593703,96.6636577 C336.893336,95.7038951 335.726057,94.990558 333.3915,94.5106767 C332.224221,94.2642512 331.770279,94.2642512 329.902633,94.0307954 C330.136089,94.7571022 330.369544,95.2240138 330.369544,96.4302019 L330.369544,106.507709 L330.369544,106.507709 Z M332.924588,96.6636577 C334.325323,96.9100832 336.192969,97.3899645 336.192969,100.022827 C336.192969,101.708896 335.02569,102.668659 333.624955,102.422233 C333.3915,102.422233 333.158044,102.188778 332.924588,102.188778 L332.924588,96.6636577 Z M302.873643,86.1192388 C303.107099,85.6393575 303.340554,84.6795949 303.57401,83.9532881 L306.829421,72.2026811 C307.051475,71.1099054 307.445463,70.0592696 307.9967,69.0899375 L304.974745,69.8032746 C305.2082,70.0497001 305.2082,70.2831559 305.2082,70.5295814 C305.165878,71.347325 305.0087,72.1550455 304.741289,72.9289879 L302.186245,82.0467327 L299.618232,73.8887505 C299.355734,73.3665424 299.197161,72.7983215 299.15132,72.2156509 C299.15132,71.7357696 299.384776,71.489344 299.384776,71.2558883 L295.882939,72.2156509 C296.349851,72.6955322 296.583307,73.1754135 297.050218,74.6150574 L300.072174,84.2126834 C300.210857,85.0371538 300.445924,85.8424759 300.772541,86.6120899 L302.873643,86.1192388 L302.873643,86.1192388 Z M313.119757,85.1465065 C312.886301,84.4201996 312.886301,84.1867439 312.886301,82.2672187 L312.886301,72.1897113 C312.886301,70.2701861 312.886301,70.0237606 313.119757,69.3104235 L309.864346,69.3104235 C310.097802,70.0367304 310.331258,70.2701861 310.331258,72.1897113 L310.331258,82.2672187 C310.331258,84.1867439 310.084832,84.4201996 309.864346,85.1465065 L313.119757,85.1465065 Z M318.48924,84.9130507 C318.101873,83.8379371 317.942854,82.6938843 318.022328,81.5538816 L318.022328,74.1222063 L324.312664,85.392932 L326.647222,85.392932 L326.647222,73.3958995 C326.647222,71.2429185 326.647222,70.5166117 327.114133,69.5698188 L324.092178,69.5698188 C324.55909,70.7630372 324.55909,71.0094627 324.55909,73.3958995 L324.55909,80.3606632 L319.202577,71.2429185 C318.502209,70.0367304 318.268754,69.8032746 318.268754,69.0769678 L314.766917,68.8305422 C315.233829,69.5568491 315.70074,70.2701861 316.167652,71.2299487 L316.167652,81.2944863 C316.167652,83.2140115 315.934196,83.9403183 315.70074,84.9000809 L318.48924,84.9000809 L318.48924,84.9130507 Z M340.148747,84.1997136 C339.44838,84.9260205 338.281101,85.6393575 335.959513,85.392932 C333.158044,84.9130507 331.303367,82.0337629 331.303367,78.1947125 C331.303367,74.6020876 333.171014,72.4361369 336.192969,73.1494739 C338.294071,73.3958995 339.214924,74.3556621 339.681836,75.0689991 L339.681836,71.9562556 L339.44838,71.9562556 C338.981468,71.9562556 338.047645,71.2299487 336.426425,70.996493 C331.770279,70.2701861 328.735354,73.1494739 328.735354,78.1947125 C328.735354,82.2672187 331.523853,86.5861504 335.492601,87.3124572 C338.060615,87.7923385 339.46135,87.0790014 340.148747,87.0790014 L340.148747,84.1997136 L340.148747,84.1997136 Z M303.340554,61.4118367 L304.040922,58.2861234 C302.995975,59.1274696 301.810429,59.7773247 300.539085,60.2056486 C300.305629,60.4391044 300.072174,60.4391044 299.838718,60.4391044 L299.838718,55.6402914 C300.072174,55.3938658 300.539085,55.3938658 300.772541,55.1604101 C301.472908,54.9139845 302.173275,54.9139845 302.873643,54.9139845 L303.340554,52.2811222 L299.838718,53.4743406 L299.838718,48.9219531 C300.072174,48.9219531 300.305629,48.6755276 300.539085,48.6755276 C302.173275,47.9492208 302.406731,47.9492208 303.340554,48.1956463 L303.807466,45.3163585 L297.283674,47.715765 C297.51713,48.4420718 297.750586,48.6755276 297.750586,50.5950528 L297.750586,60.4261346 C297.750586,62.3456598 297.51713,62.8255411 297.283674,63.5518479 L303.340554,61.4118367 L303.340554,61.4118367 Z M307.9967,60.9319554 C307.763244,60.4520741 307.529788,59.7387371 307.529788,57.5727863 L307.529788,50.3745668 L312.886301,60.4520741 L314.753947,60.2186184 L314.753947,48.2215858 C314.753947,46.0556351 314.987403,45.1088423 315.220859,44.1490797 L312.652845,44.628961 C313.119757,45.8221793 313.119757,46.0686049 313.119757,48.4680114 L313.119757,55.4198053 L308.463611,47.2618232 C307.763244,46.0686049 307.763244,45.8221793 307.529788,45.342298 L304.728319,45.5887236 C305.195231,46.3020606 305.428686,46.7819419 305.895598,47.7417045 L305.895598,57.8192119 C305.895598,59.7387371 305.662142,60.4520741 305.428686,61.4118367 L307.9967,60.9319554 L307.9967,60.9319554 Z M320.11046,46.5355164 L321.277739,46.5355164 C324.299694,46.7819419 325.466973,49.8946855 325.466973,52.5275478 C325.466973,56.6130237 323.845753,58.2861234 321.044283,58.2861234 C320.797858,58.2861234 320.577372,58.0526676 320.11046,58.0526676 L320.11046,46.5355164 Z M320.577372,60.2056486 C321.511195,60.2056486 323.365871,60.4391044 324.299694,59.7257673 C326.867708,58.5195792 327.801531,55.6532611 327.801531,52.7739733 C327.743755,50.345731 326.927408,47.9964668 325.466973,46.0556351 C324.53315,45.3293283 323.845753,44.6159912 321.044283,44.3825354 L317.542447,44.1361099 C317.775903,44.8624167 318.009358,45.3293283 318.009358,47.2488535 L318.009358,57.0799353 C318.009358,58.9994605 317.775903,59.4793418 317.542447,59.9592231 L320.577372,60.2056486 L320.577372,60.2056486 Z M335.492601,62.1251738 C338.994438,62.8514806 341.549482,59.7257673 341.549482,55.1733798 C341.549482,50.6209923 338.981468,46.5355164 335.726057,45.8221793 C332.224221,45.342298 329.669177,48.4680114 329.669177,53.0203988 C329.656207,57.5727863 332.457676,61.6452925 335.492601,62.1251738 Z M331.990765,53.2538546 C331.990765,49.6612297 333.3915,47.495279 335.492601,47.9751603 C337.827159,48.2215858 339.214924,51.3343294 339.214924,54.6934985 C339.214924,58.0526676 337.827159,60.6984997 335.726057,60.2186184 C333.3915,59.7257673 331.990765,57.092905 331.990765,53.2538546 Z M118.119342,293.596568 C118.586254,293.596568 119.053165,293.350142 119.286621,293.350142 C122.676999,293.369313 125.8652,294.965811 127.911514,297.669074 C127.678059,298.615867 127.678059,299.342174 127.444603,300.301936 C126.744236,304.867293 126.52375,309.186225 126.277324,312.999336 C126.043868,313.245761 125.823382,313.245761 125.576957,313.245761 C124.656103,313.245761 123.955736,312.532424 123.709311,311.572662 C123.091867,307.149502 122.000452,302.805586 120.4539,298.615867 C119.753532,296.942767 119.053165,295.023242 118.119342,293.596568 L118.119342,293.596568 Z" id="Shape" fill="#000000" fill-rule="nonzero"></path>
                <path d="M140.959098,284.465853 C142.826744,279.66704 145.148332,275.101683 147.46992,271.509058 C148.170287,270.069414 148.870655,268.863226 149.571022,267.670008 C151.672124,263.10465 153.072858,258.552263 153.760256,255.193094 L153.760256,253.027143 C153.760256,246.308805 149.571022,240.563199 144.214509,240.563199 C138.845026,240.563199 134.422336,246.801656 134.422336,253.519994 C134.422336,257.5925 134.668762,262.157858 134.889248,265.750482 C135.122704,267.670008 135.122704,269.589533 135.122704,271.742514 L135.122704,275.335139 C134.889248,277.747515 134.668762,280.133952 134.422336,282.053477 C133.255058,287.812053 129.299279,291.897528 124.409678,291.897528 L124.176222,291.897528 C122.931254,291.844678 121.877465,290.961199 121.608209,289.744548 C121.290246,288.654549 121.210624,287.508881 121.374753,286.385378 C121.374753,285.905497 121.608209,285.425616 121.608209,284.945735 C121.608209,284.699309 121.841665,284.465853 121.841665,284.219428 C121.841665,283.01324 120.674386,281.820021 119.507107,281.820021 C118.339828,281.820021 117.406005,283.01324 117.406005,284.219428 C117.406005,284.465853 117.406005,284.699309 117.639461,285.17919 C117.872916,286.385378 118.106372,287.332171 117.872916,288.291934 C117.872916,289.498122 116.952063,290.457885 116.00527,290.457885 C115.304903,290.457885 114.617505,289.978003 114.137624,289.251696 C112.25314,285.372428 111.370274,281.082946 111.569611,276.774783 C111.569611,271.97597 113.203801,267.657038 115.071447,264.310839 C116.692668,262.144888 118.093402,259.512026 119.494137,256.866194 C122.295606,251.833925 124.383738,246.801656 125.784473,242.71618 C128.572972,235.517961 134.642822,230.00581 142.087467,228.799622 C153.734316,226.880097 164.927223,235.997842 167.015356,248.941667 C167.248811,250.627737 167.248811,252.300836 167.248811,253.74048 C167.248811,258.785719 166.081533,265.257631 164.226856,271.963 L163.9934,272.689307 C163.072547,275.322169 162.37218,278.434913 161.658843,281.573596 C161.658843,282.299902 161.425387,283.00027 161.425387,283.726577 C160.491564,289.731578 160.024652,295.243728 160.258108,299.56266 C160.258108,303.155284 162.35921,306.280998 165.381165,307.720642 C167.015356,308.446948 168.883002,309.160286 170.504222,309.873623 C171.904957,308.92683 174.239515,307.24076 174.926912,306.514454 C177.78981,303.462372 179.372791,299.428324 179.349602,295.243728 C179.349602,292.130984 178.415779,289.251696 177.028014,286.85229 C174.693456,283.01324 173.772603,276.307871 174.226545,268.863226 C174.693456,263.584532 175.627279,257.825956 176.794558,252.08035 C177.26147,250.160825 177.494926,248.721181 177.961837,246.801656 C180.231839,238.584437 182.097404,230.260816 183.551806,221.860798 C188.207951,195.713752 188.921288,173.652182 185.419452,169.086825 C192.176699,170.772894 199.400859,177.971114 203.356637,187.802196 C209.413517,188.515533 217.104588,194.274108 218.492352,203.625309 C223.861835,204.831497 229.451804,210.343647 230.839569,219.941273 C232.473759,217.541866 234.341405,213.949242 235.72917,210.590072 C238.450465,204.188187 240.480918,197.514214 241.78605,190.681483 C245.508373,193.560771 249.931063,199.552803 251.098341,206.037685 C257.388677,208.683517 261.111,214.429123 261.357425,223.546868 L261.357425,226.906037 C265.326173,229.785324 268.114673,235.064019 268.348129,241.05605 C268.581584,244.661645 267.881217,247.540933 266.480483,250.173795 C268.581584,253.053083 269.982319,256.645708 270.215775,260.718214 C270.215775,264.557264 269.281952,267.682977 267.647761,270.069414 C269.048496,272.468821 269.982319,275.101683 270.215775,277.980971 C270.449231,282.312872 269.281952,286.138953 266.947394,288.784785 C267.647761,290.470854 268.114673,292.37741 268.348129,294.296935 C268.581584,300.301936 264.612836,307.500156 259.723235,310.133018 C259.956691,312.76588 259.723235,313.972068 258.789412,316.6179 C256.921766,321.650169 253.432899,325.48922 249.010209,327.162319 C249.010209,329.068875 248.776753,330.041607 248.076386,332.207558 C246.909107,335.320301 244.820975,337.953164 242.486417,339.639233 C242.486417,340.119114 242.719873,341.312333 244.120608,342.518521 C250.520501,348.434852 257.937481,353.145161 266.013571,356.422109 C274.162187,359.625514 282.702976,361.723634 291.408371,362.660566 C289.540724,366.720102 283.950756,369.858785 277.426964,369.858785 C276.259685,369.858785 275.325862,369.61236 274.405009,369.61236 C272.303907,373.45141 266.247027,376.330698 259.022868,376.330698 C257.855589,376.330698 256.68831,376.330698 255.521031,376.084272 C253.653385,379.443441 248.530328,382.556185 242.473448,383.762373 C241.072713,386.641661 233.615098,389.287493 228.725497,390.234286 C225.03906,397.788199 223.051371,406.057693 222.902072,414.461807 C222.201705,427.405632 225.690572,438.922783 231.047085,446.121003 C231.047085,446.121003 231.280541,446.600884 231.280541,446.83434 C231.280541,447.560647 230.813629,448.040528 230.113262,448.040528 C229.879806,448.040528 229.879806,447.794102 229.64635,447.794102 C228.292618,447.038859 226.773561,446.629025 225.22366,446.600884 C220.567515,446.121003 216.131855,449.713628 214.043723,454.745896 C214.043723,454.992322 213.576812,455.225778 213.343356,455.225778 C212.642988,455.225778 212.176077,454.745896 212.176077,454.032559 L212.176077,453.786134 C212.176077,453.306252 212.409533,452.826371 212.409533,452.34649 C212.642988,447.547677 209.854489,443.708626 206.119197,443.228745 C204.595499,443.191841 203.109098,443.702648 201.929963,444.668389 L201.463051,444.668389 C201.229595,444.668389 200.99614,444.421964 200.99614,444.188508 C200.99614,440.829339 203.551183,437.236714 207.753387,435.317189 C207.999813,435.317189 208.220299,435.070763 208.220299,435.070763 C214.977546,431.94505 218.232957,421.867542 216.598767,410.363361 L216.598767,409.88348 C216.037552,407.071911 214.661888,404.487467 212.642988,402.451804 C211.568731,401.288746 210.305903,400.315316 208.907696,399.572517 C208.67424,399.572517 203.551183,396.213347 202.150449,395.007159 C201.916993,395.007159 200.749714,394.527278 200.516258,394.527278 C197.727759,394.527278 195.159745,394.280852 192.825188,394.047397 C191.437423,398.366328 190.49063,403.165141 190.270144,408.430866 C190.023719,417.795036 191.891365,426.186474 195.159745,432.178505 C195.393201,432.424931 195.393201,432.424931 195.393201,432.658387 C195.393201,433.138268 194.92629,433.618149 194.459378,433.618149 C194.225922,433.618149 193.992467,433.618149 193.759011,433.371724 C192.825188,432.411961 191.657909,431.93208 190.5036,432.165536 C189.115835,432.645417 188.169042,434.085061 188.169042,435.758161 C187.935586,437.44423 187.935586,439.350785 188.169042,441.516736 C188.169042,443.423292 188.635954,445.355787 188.869409,447.041856 L188.869409,447.275312 C188.869409,447.521737 188.402498,448.001619 188.169042,448.001619 C187.935586,448.001619 187.702131,447.755193 187.468675,447.755193 C187.468675,447.508768 187.235219,447.508768 187.235219,447.275312 C183.045985,443.436261 176.288737,443.916143 171.16568,448.001619 L170.698769,448.001619 C170.231857,448.001619 169.764946,447.755193 169.764946,447.275312 L169.764946,447.041856 C171.16568,442.709955 170.932225,438.637448 169.064578,436.484467 C167.196932,434.564942 164.408433,434.564942 161.140052,436.484467 L160.997385,436.484467 C160.530473,436.484467 160.297017,436.238042 160.063562,436.004586 C159.830106,432.891843 162.852061,429.779099 167.521176,428.572911 C169.155367,428.105999 170.543132,428.105999 171.956836,428.105999 C174.745335,428.339455 177.079893,427.613148 179.401481,426.41993 C187.326007,421.621117 187.559463,406.991222 179.401481,393.788001 C178.919197,392.744211 178.290298,391.774658 177.533835,390.908714 C177.228487,390.297031 176.835223,389.733353 176.366556,389.235614 C175.213706,387.292602 174.352818,385.190635 173.811512,382.997157 C169.494187,381.445084 165.354975,379.436349 161.464296,377.005126 C140.959098,363.801905 131.880263,342.700098 138.62454,326.397103 C136.289983,321.59829 135.122704,315.606259 135.122704,309.134346 C135.122704,306.488514 135.369129,303.855652 135.589615,301.689701 C136.703322,295.759088 138.505338,289.978708 140.959098,284.465853 L140.959098,284.465853 Z" id="Path" fill="#000000" fill-rule="nonzero"></path>
                <path d="M215.509307,261.690946 C219.465085,257.61844 223.420863,253.053083 227.389611,248.500695 C239.282886,233.8708 246.260619,219.954243 246.960986,212.042686 C247.427898,206.997448 246.260619,202.44506 243.45915,200.77196 C243.225694,207.97018 233.913403,225.232937 218.998173,244.661645 C220.398908,247.307477 219.698541,251.859864 217.610408,255.93237 C216.676585,257.125589 216.209674,257.60547 215.042395,259.045114 C215.042395,260.004877 215.275851,260.718214 215.509307,261.690946 L215.509307,261.690946 Z" id="Path" fill="#FFFFFF"></path>
                <path d="M216.910041,272.248335 C224.964961,267.812438 232.33843,262.238655 238.803004,255.698915 C246.960986,247.307477 253.017867,238.423188 256.273278,230.511631 C257.207101,228.35865 257.674012,225.712818 257.440556,222.83353 C257.207101,217.32138 254.185145,212.522567 250.449853,210.836498 C250.683309,212.042686 250.449853,213.002449 250.449853,214.195667 C249.51603,222.353649 242.525327,236.023781 230.411566,250.42022 C228.310464,252.819627 226.455788,255.219033 224.354686,257.372014 C224.354686,259.537965 223.654319,262.170827 222.253584,264.80369 C221.030863,267.137245 219.063325,268.995222 216.663616,270.082384 C216.663616,270.795721 216.910041,271.522028 216.910041,272.248335 L216.910041,272.248335 Z" id="Path" fill="#FFFFFF"></path>
                <path d="M260.00857,232.184731 C262.576583,234.104256 264.210774,237.696881 264.210774,241.782357 C264.210774,244.181763 263.276951,246.827596 262.343128,248.747121 C262.343128,248.980576 262.109672,249.460458 261.876216,249.460458 C258.374379,256.658677 246.973956,266.736185 230.657992,275.361078 C226.235302,277.773455 221.799642,280.159891 217.376953,282.079416 L217.376953,279.926435 C219.845832,278.711424 221.82015,276.682137 222.966921,274.18083 C223.433833,273.700948 223.667289,272.974642 223.900744,272.261304 C230.472656,268.251871 236.501236,263.413314 241.837929,257.864865 C250.449853,249.214032 256.519703,240.096288 260.00857,232.184731 L260.00857,232.184731 Z M217.376953,289.277636 C217.376953,290.003943 217.143497,290.70431 217.143497,291.430617 L225.521965,289.277636 C243.225694,284.232397 256.740189,277.280603 261.64276,271.042147 C261.876216,271.042147 262.109672,270.562265 262.343128,270.562265 C263.510406,268.876196 265.131627,266.723215 265.598538,264.323808 C266.532362,260.251302 265.831994,257.125589 263.730892,254.492727 C258.594865,261.690946 250.449853,268.396315 240.437195,274.647741 C235.781049,277.527029 230.878478,279.913466 226.222332,282.066447 C225.755421,283.026209 225.055053,283.985972 224.354686,284.958704 C222.545972,287.102275 220.102217,288.614859 217.376953,289.277636 L217.376953,289.277636 Z" id="Shape" fill="#FFFFFF"></path>
                <path d="M216.44313,300.301936 C217.830894,300.301936 219.465085,300.301936 220.865819,300.055511 C239.269916,299.095748 253.95169,295.010272 260.00857,290.224429 C260.242026,289.978003 260.475481,289.744548 260.708937,289.744548 C262.343128,288.304904 264.210774,286.138953 265.131627,283.985972 C266.032292,282.282255 266.512555,280.387885 266.532362,278.460852 C266.568674,276.531048 266.084835,274.627052 265.131627,272.948702 C264.664715,273.675009 264.210774,274.388346 263.743862,274.855257 L263.043495,275.594534 C257.686982,281.586565 243.705575,288.538359 225.301479,293.103717 C224.1342,295.010272 221.799642,296.696341 219.011143,297.88956 C218.262101,298.16805 217.474744,298.329896 216.676585,298.369441 C216.663616,299.095748 216.44313,299.822055 216.44313,300.301936 L216.44313,300.301936 Z" id="Path" fill="#FFFFFF"></path>
                <path d="M214.808939,310.133018 L215.275851,310.133018 C233.679947,312.545394 248.582207,311.092781 255.57291,307.25373 C255.57291,307.25373 256.039822,307.007305 256.273278,307.007305 C258.381809,305.810249 260.212024,304.17897 261.64276,302.221461 C262.797069,300.535392 263.510406,298.849322 263.964348,296.942767 C264.298129,295.092085 264.137058,293.186069 263.497437,291.417647 C262.938185,292.046045 262.311917,292.611426 261.62979,293.103717 C261.396335,293.103717 261.162879,293.583598 260.929423,293.583598 C255.105999,298.369441 241.824959,302.221461 224.821598,303.648135 C223.654319,304.854324 222.253584,306.047542 220.632364,307.007305 C218.906041,307.685159 217.109395,308.168034 215.275851,308.446948 C215.042395,309.186225 215.042395,309.419681 214.808939,310.133018 L214.808939,310.133018 Z M212.707837,319.977069 C227.376641,324.036606 239.503372,325.009338 245.793708,323.089813 C246.027163,322.843387 246.494075,322.843387 246.494075,322.843387 C248.361721,322.117081 250.683309,320.923862 252.084043,319.484218 C253.307643,318.254728 254.261729,316.783846 254.885513,315.165287 C255.58588,313.245761 255.352424,311.806118 255.352424,311.806118 C254.652057,312.052543 254.185145,312.052543 253.484778,312.532424 L251.617132,313.245761 C245.793708,315.411712 236.001535,315.891594 221.799642,314.685405 C219.993724,316.670023 217.486843,317.874629 214.808939,318.044574 L213.187719,318.044574 C212.941293,318.770881 212.941293,319.250763 212.707837,319.977069 L212.707837,319.977069 Z M209.452426,329.3153 C219.698541,334.593994 228.323434,337.226857 233.679947,336.746975 L234.380314,336.746975 C238.128654,336.698686 241.61431,334.812844 243.705575,331.701737 C244.619139,330.360131 245.103137,328.772436 245.093486,327.149349 C244.626429,327.395775 243.939031,327.629231 243.225694,327.875656 L242.525327,327.875656 C236.701902,328.822449 229.244288,328.122082 219.231629,325.229824 C217.597439,327.149349 214.095602,328.355538 210.37328,327.395775 C210.221427,328.099087 209.905947,328.756707 209.452426,329.3153 L209.452426,329.3153 Z M186.859096,260.004877 L186.859096,260.484758 C186.859096,261.211065 187.326007,261.690949 188.026375,261.690949 C188.522332,261.691939 188.975433,261.410009 189.193654,260.964639 C192.68252,251.133557 195.950901,238.903069 198.052003,226.17973 C199.439768,216.828529 200.140135,208.437091 200.140135,201.238872 C200.140135,191.174334 196.884724,182.290045 191.995123,179.177302 C192.928946,188.774928 191.761667,205.324348 188.25983,224.273174 C187.003292,231.114734 185.528308,237.914365 183.837141,244.661645 C186.171698,246.334744 187.805889,250.173795 187.805889,254.492727 C187.779949,256.412252 187.546493,258.331777 186.859096,260.004877 L186.859096,260.004877 Z M208.985515,251.379983 C215.441779,243.279695 221.505633,234.874268 227.156155,226.1927 L227.156155,225.712818 C227.156155,217.554836 223.654319,210.603042 218.777687,208.929943 C219.944966,216.608043 216.676585,231.717819 209.919338,248.500695 C209.672912,249.447488 209.218971,250.407251 208.985515,251.379983 Z" id="Shape" fill="#FFFFFF"></path>
                <path d="M179.168025,314.205524 C180.55579,313.245761 182.890348,311.572662 184.757994,308.693374 C185.149395,308.270495 185.465261,307.783535 185.691817,307.25373 C188.026375,303.181224 189.193654,295.983004 188.246861,287.825022 C188.246861,287.345141 188.013405,286.86526 188.013405,286.618834 C187.748592,284.380569 187.827319,282.114981 188.246861,279.900496 C188.713772,277.747515 189.41414,275.594534 190.114507,273.908465 C193.382888,267.423582 195.937931,263.830957 198.972856,255.919401 C200.373591,251.846895 200.140135,247.761419 198.272489,245.608438 C203.862458,222.587105 206.197015,202.43209 204.329369,193.807197 C208.985515,194.287078 213.408205,200.032684 214.342028,207.710785 C214.575483,209.876735 214.575483,212.029716 214.342028,213.949242 C213.174749,223.066986 210.386249,234.091286 206.650957,245.841893 C203.149121,256.879163 198.959887,266.943701 194.757683,275.101683 C193.934012,277.035169 193.30827,279.047101 192.890037,281.106684 C192.656581,283.506091 192.423125,285.905497 192.890037,287.825022 L192.890037,289.03121 C193.82386,297.189193 192.890037,304.387412 190.334993,308.459918 C189.40117,310.366474 188.000435,312.052543 186.599701,313.725643 C183.51102,316.717242 179.760847,318.938908 175.653219,320.210525 L175.186307,320.210525 C174.252484,320.210525 173.318661,319.250763 173.318661,318.291 C173.318661,317.564693 173.785573,316.851356 174.48594,316.6179 C176.600012,315.891594 178.234202,314.931831 179.168025,314.205524 L179.168025,314.205524 Z M239.03646,340.832451 C238.695407,341.684099 238.130825,342.427913 237.40227,342.985432 C236.397651,343.828888 235.198493,344.408407 233.913403,344.671502 C233.913403,344.671502 231.812301,345.151383 228.790346,344.917927 C228.217792,346.16004 227.333006,347.232507 226.222332,348.030671 C223.477207,350.606368 219.691606,351.761216 215.976218,351.156384 C215.509307,351.623296 215.042395,352.103177 214.575483,352.349603 C213.545559,353.391435 212.256001,354.1392 210.840191,354.515553 C209.128088,355.145347 207.278911,355.306443 205.483678,354.982465 C205.250222,354.982465 205.016767,354.736039 204.783311,354.736039 C201.994811,354.269128 198.259519,352.829484 194.070285,349.703771 C192.436095,350.663533 188.246861,351.38984 186.61267,351.38984 C181.243188,351.38984 175.886675,348.744008 171.697441,344.19162 C171.697441,343.932225 171.463985,343.711739 171.463985,343.452344 C171.463985,342.972463 171.930896,342.505551 172.384838,342.505551 C172.631264,342.505551 172.85175,342.751977 172.85175,342.751977 C177.053954,346.824483 181.710099,349.223889 186.599701,349.223889 C188.220921,349.223889 190.555479,348.744008 191.956213,348.264127 C192.872517,348.005464 193.740082,347.597971 194.524227,347.057939 C198.246549,349.703771 201.51493,351.38984 204.069974,352.103177 L204.536885,352.103177 C205.93762,352.583058 208.038722,352.583058 209.659943,352.103177 C210.84065,351.872435 211.956346,351.385426 212.928323,350.676503 C209.206001,349.71674 204.536885,347.317334 199.413828,343.724709 L201.048019,342.03864 C206.171076,345.397809 210.37328,347.317334 213.628691,347.784245 C213.862146,347.784245 214.329058,348.030671 214.329058,348.030671 C216.196704,348.277096 218.518292,348.277096 220.385938,347.784245 C221.970555,347.249514 223.406099,346.347299 224.575172,345.151383 C224.990673,344.959059 225.322421,344.622705 225.508995,344.20459 C219.919027,342.985432 213.161779,340.132084 205.717134,336.033638 L207.104899,333.880657 C216.884102,338.925896 225.275539,341.558758 231.098964,341.792214 L232.032787,341.792214 C234.146859,341.792214 236.701902,341.558758 239.03646,340.832451 L239.03646,340.832451 Z" id="Shape" fill="#FFFFFF"></path>
            </g>
        </g>
    </g>
</svg>