<?xml version="1.0" encoding="UTF-8"?>
<svg width="512px" height="512px" viewBox="0 0 512 512" version="1.1" xmlns="http://www.w3.org/2000/svg" xmlns:xlink="http://www.w3.org/1999/xlink">
    <title>Group</title>
    <g id="Page-1" stroke="none" stroke-width="1" fill="none" fill-rule="evenodd">
        <g id="Group" fill-rule="nonzero">
            <path d="M484.078,27.923 C466.072,9.917 442.131,0 416.666,0 L95.334,0 C42.766,0 0,42.769 0,95.333 L0,416.666 C0,469.233 42.768,512 95.334,512 L416.666,512 C469.233,512 512,469.233 512,416.666 L512,95.335 C512,69.87 502.084,45.929 484.078,27.923 Z" id="Shape-path" fill="#75923C"></path>
            <path d="M174.930242,172.509425 L86.8464468,260.363494 L165.177819,338.490575 C171.949051,345.244148 171.949051,356.192773 165.177819,362.93482 C158.418141,369.688393 147.440888,369.688393 140.669655,362.93482 L50.0784242,272.579855 C43.3071919,265.826282 43.3071919,254.889182 50.0784242,248.135609 L150.410524,148.06518 C157.181756,141.311607 168.15901,141.311607 174.930242,148.06518 C181.689919,154.807227 181.689919,165.755852 174.930242,172.509425 Z M318.008382,132.095376 L226.594854,391.439293 C223.414051,400.46939 213.537425,405.192292 204.536673,402.005199 C195.535921,398.818106 190.810814,388.921951 193.991618,379.903402 L285.405146,120.559485 C288.585949,111.540935 298.45105,106.806486 307.463327,109.993579 C316.464079,113.180672 321.189186,123.076826 318.008382,132.095376 L318.008382,132.095376 Z M461.921576,262.864391 L361.589476,362.93482 C354.818244,369.688393 343.84099,369.688393 337.069758,362.93482 C330.310081,356.192773 330.310081,345.244148 337.069758,338.490575 L425.153553,250.636506 L346.822181,172.509425 C340.050949,165.755852 340.050949,154.807227 346.822181,148.06518 C353.581859,141.311607 364.559112,141.311607 371.330345,148.06518 L461.921576,238.420145 C468.692808,245.173718 468.692808,256.110818 461.921576,262.864391 L461.921576,262.864391 Z" id="Shape" fill="#FFFFFF"></path>
        </g>
    </g>
</svg>