<?xml version="1.0" encoding="UTF-8"?>
<svg width="86px" height="95px" viewBox="0 0 86 95" version="1.1" xmlns="http://www.w3.org/2000/svg" xmlns:xlink="http://www.w3.org/1999/xlink">
    <title>Shape</title>
    <g id="Page-1" stroke="none" stroke-width="1" fill="none" fill-rule="evenodd">
        <path d="M79.5,19.1 L49.1,1.6 C45.4,-0.5 40.9,-0.5 37.2,1.6 L6.8,19.2 C3.1,21.3 0.9,25.2 0.9,29.5 L0.9,64.6 C0.9,68.8 3.2,72.8 6.8,74.9 L37.2,92.5 C40.9,94.6 45.4,94.6 49.1,92.5 L79.5,74.9 C83.2,72.8 85.4,68.9 85.4,64.6 L85.4,29.4 C85.4,25.2 83.2,21.3 79.5,19.1 Z M71.1,39.5 C71.1,39.8 71,40 70.7,40.1 L45.3,54.8 C44.3,55.4 43.1,54.7 43.1,53.5 L43.1,45.7 C43.1,44.9 43.5,44.2 44.2,43.8 L58.8,35.4 C58.6,35.2 58.3,35.1 58.1,34.9 L46.1,28 C44.3,26.9 42,26.9 40.2,28 L28.2,34.9 C26.4,36 25.2,37.9 25.2,40 L25.2,53.9 C25.2,56 26.3,58 28.2,59 L40.2,65.9 C42,67 44.3,67 46.1,65.9 L70.6,51.8 C70.8,51.7 71.2,51.8 71.2,52.1 L71.2,58 C71.2,61.2 69.5,64.1 66.7,65.7 L47.6,76.7 C44.8,78.3 41.4,78.3 38.7,76.7 L19.6,65.7 C16.8,64.1 15.1,61.2 15.1,58 L15.1,36 C15.1,32.8 16.8,29.9 19.6,28.3 L38.7,17.3 C41.5,15.7 44.9,15.7 47.6,17.3 L66.7,28.3 C69.5,29.9 71.2,32.8 71.2,36 L71.2,39.5 L71.1,39.5 Z" id="Shape" fill="#FF9900" fill-rule="nonzero"></path>
    </g>
</svg>