<?xml version="1.0" encoding="UTF-8"?>
<svg width="46px" height="44px" viewBox="0 0 46 44" version="1.1" xmlns="http://www.w3.org/2000/svg" xmlns:xlink="http://www.w3.org/1999/xlink">
    <title>Group 2</title>
    <g id="Page-1" stroke="none" stroke-width="1" fill="none" fill-rule="evenodd">
        <g id="Group-2" transform="translate(-0.000000, 0.000000)" fill="#1EABE2" fill-rule="nonzero">
            <path d="M15.388,0 L15.388,9.992 L30.882,20.809 C31.502,21.242 31.502,22.16 30.882,22.592 L15.388,33.408 L15.388,43.402 L44.917,22.787 C45.672,22.26 45.672,21.142 44.917,20.615 L15.388,0 Z" id="path20"></path>
            <path d="M6.6882,7.2639 L6.6882,14.9369 L15.1032,20.8119 C15.7222,21.2429 15.7222,22.1589 15.1032,22.5899 L6.6882,28.4649 L6.6882,36.1359 L25.8102,22.7869 C26.5652,22.2599 26.5652,21.1419 25.8102,20.6149 L6.6882,7.2639 Z" id="path22"></path>
            <path d="M0,13.6126 L0,18.4436 L3.389,20.8096 C4.009,21.2426 4.009,22.1596 3.389,22.5926 L0,24.9586 L0,29.7896 L10.036,22.7816 C10.788,22.2566 10.788,21.1446 10.036,20.6206 L0,13.6126 Z" id="path24"></path>
        </g>
    </g>
</svg>