<?xml version="1.0" encoding="UTF-8"?>
<svg width="48px" height="41px" viewBox="0 0 48 41" version="1.1" xmlns="http://www.w3.org/2000/svg" xmlns:xlink="http://www.w3.org/1999/xlink">
    <title>Group 2</title>
    <defs>
        <rect id="path-1" x="0" y="0" width="47.6562966" height="40.8408148"></rect>
    </defs>
    <g id="Page-1" stroke="none" stroke-width="1" fill="none" fill-rule="evenodd">
        <g id="Group-2">
            <g id="Clipped">
                <mask id="mask-2" fill="white">
                    <use xlink:href="#path-1"></use>
                </mask>
                <g id="Rectangle"></g>
                <g id="Group" mask="url(#mask-2)" fill-rule="nonzero">
                    <g transform="translate(0.000006, -0.002057)" id="Path">
                        <path d="M45.7847998,31.4919266 C43.2460816,32.8198715 30.0707853,38.2390583 27.2326286,39.7264868 C24.3944719,41.2139153 22.8744957,41.1716033 20.6547447,40.1105493 C18.4349937,39.0494953 4.4622795,33.3666723 1.93007086,32.155899 C0.654202249,31.5570219 0.00324887357,31.0460235 0.00324887357,30.5675728 L0.00324887357,25.7472631 C0.00324887357,25.7472631 18.2559815,21.7862118 21.2015455,20.7186482 C24.1471096,19.6510847 25.1658516,19.6250466 27.6687673,20.5428908 C30.1716831,21.4607351 45.1761584,24.1687011 47.653036,25.0670168 L47.653036,29.8189764 C47.653036,30.313701 47.0834518,30.7954065 45.7847998,31.4886718 L45.7847998,31.4919266 Z" fill="#A32422"></path>
                        <path d="M45.7847998,26.6944002 C43.2460816,28.0158356 30.0707853,33.4350224 27.2326286,34.8964128 C24.3944719,36.3578031 22.8744957,36.344784 20.6547447,35.2869848 C18.4349937,34.2291855 4.4622795,28.5463626 1.93007086,27.3453536 C-0.602137766,26.1443446 -0.650959269,25.3046148 1.83242786,24.3346942 C4.31581499,23.3647737 18.2559815,17.9065297 21.2015455,16.8324566 C24.1471096,15.7583835 25.1658516,15.7356002 27.6687673,16.6566992 C30.1716831,17.5777982 43.2916483,22.78868 45.7555069,23.6967599 C48.2193654,24.6048399 48.3332822,25.3501815 45.7847998,26.6683621 L45.7847998,26.6944002 Z" fill="#DC382C"></path>
                        <path d="M45.7847998,23.6414289 C43.2460816,24.966119 30.0707853,30.3820511 27.2326286,31.8434414 C24.3944719,33.3048318 22.8875148,33.2918127 20.6677638,32.2275039 C18.4480128,31.1631952 4.4622795,25.5129199 1.93007086,24.3054013 C0.654202249,23.7000147 0.00324887357,23.1922711 0.00324887357,22.7105656 L0.00324887357,17.9065297 C0.00324887357,17.9065297 18.2559815,13.9324593 21.2015455,12.8648958 C24.1471096,11.7973322 25.1658516,11.7680393 27.6687673,12.6989027 C30.1716831,13.629766 45.1761584,16.3116939 47.653036,17.2165191 L47.653036,21.9684787 C47.653036,22.4632033 47.0834518,22.9579279 45.7847998,23.6414289 Z" fill="#A32422"></path>
                        <path d="M45.7847998,18.8211192 C43.2460816,20.149064 30.0707853,25.5649961 27.2326286,27.0263865 C24.3944719,28.4877768 22.8744957,28.4780125 20.6547447,27.4169585 C18.4349937,26.3559045 4.4622795,20.6958649 1.93007086,19.4850916 C-0.602137766,18.2743183 -0.647704502,17.4508623 1.83242786,16.4809418 C4.31256022,15.5110212 18.2559815,10.0397581 21.2015455,8.99497795 C24.1471096,7.95019778 25.1658516,7.88510244 27.6687673,8.7931824 C30.1716831,9.70126236 43.2916483,14.9577109 45.7555069,15.8397527 C48.2193654,16.7217945 48.3332822,17.496429 45.7847998,18.8113549 L45.7847998,18.8211192 Z" fill="#DC382C"></path>
                        <path d="M45.7847998,15.4947474 C43.2460816,16.8226923 30.0707853,22.2418791 27.2326286,23.7000147 C24.3944719,25.1581503 22.8875148,25.148386 20.6677638,24.0905867 C18.4480128,23.0327875 4.4622795,17.3662384 1.93007086,16.1587198 C0.654202249,15.5598427 0.00324887357,15.0488443 0.00324887357,14.5671388 L0.00324887357,9.7468291 C0.00324887357,9.7468291 18.2559815,5.78577781 21.2015455,4.72146904 C24.1471096,3.65716027 25.1658516,3.6246126 27.6687673,4.54245686 C30.1716831,5.46030112 45.1696488,8.16826716 47.6465816,9.07309236 L47.6465816,13.825052 C47.653036,14.3262861 47.0834518,14.8145011 45.7847998,15.4947474 Z" fill="#A32422"></path>
                        <path d="M45.7847998,10.6809472 C43.2460816,11.9828539 30.0707853,17.4345885 27.2326286,18.8829597 C24.3944719,20.331331 22.8744957,20.3280762 20.6547447,19.2735317 C18.4349937,18.2189873 4.4622795,12.5459286 1.93007086,11.3416649 C-0.602137766,10.1374011 -0.650959269,9.30092604 1.83242786,8.33100551 C4.31581499,7.36108498 18.2559815,1.89307662 21.2015455,0.832022622 C24.1471096,-0.22903138 25.1658516,-0.261579049 27.6687673,0.65626521 C30.1716831,1.57410947 43.2916483,6.79150077 45.7555069,7.69632597 C48.2193654,8.60115116 48.3332822,9.35300231 45.7847998,10.6711829 L45.7847998,10.6809472 Z" fill="#DC382C"></path>
                    </g>
                </g>
            </g>
            <polygon id="Path" fill="#FFFFFF" fill-rule="nonzero" points="24.5767447 3.83411538 27.7208495 2.80235428 26.8681006 4.83983835 30.0675364 6.03759256 25.9437468 6.46722179 25.0161382 8.69348233 23.525455 6.2100952 18.7572215 5.78046597 22.3179365 4.49808782 21.2471182 2.5256991 24.5767447 3.83411538 24.5767447 3.83411538"></polygon>
            <polygon id="Path" fill="#FFFFFF" fill-rule="nonzero" points="24.7752855 16.8303995 17.0679975 13.6309637 28.1081668 11.9352301 24.7752855 16.8303995 24.7752855 16.8303995"></polygon>
            <path d="M14.0898858,7.27440397 C17.3446527,7.27440397 19.9907782,8.29965554 19.9907782,9.55274078 C19.9907782,10.805826 17.3381432,11.8310776 14.0898858,11.8310776 C10.8416285,11.8310776 8.1857387,10.805826 8.1857387,9.55274078 C8.1857387,8.29965554 10.8318642,7.27440397 14.0898858,7.27440397 Z" id="Path" fill="#FFFFFF" fill-rule="nonzero"></path>
            <polygon id="Path" fill="#741113" fill-rule="nonzero" points="34.9529415 6.64623396 41.4852586 9.2272641 34.959451 11.8082942 34.9529415 6.64623396 34.9529415 6.64623396"></polygon>
            <polygon id="Path" fill="#AC2724" fill-rule="nonzero" points="34.9529415 6.64623396 34.959451 11.8082942 34.2499119 12.0849494 27.7208495 9.50391928 34.9529415 6.64623396 34.9529415 6.64623396"></polygon>
        </g>
    </g>
</svg>