<?xml version="1.0" encoding="UTF-8"?>
<svg width="57px" height="57px" viewBox="0 0 57 57" version="1.1" xmlns="http://www.w3.org/2000/svg" xmlns:xlink="http://www.w3.org/1999/xlink">
    <title>g12</title>
    <g id="Page-1" stroke="none" stroke-width="1" fill="none" fill-rule="evenodd">
        <g id="g12" transform="translate(-0.000001, -0.000000)" fill-rule="nonzero">
            <circle id="circle14" fill="#000000" cx="28.072001" cy="28.072001" r="28.072001"></circle>
            <path d="M40.345,10.387001 C37.494,10.487001 35.003,12.059001 33.152,14.233001 C31.099,16.617001 29.735,19.446001 28.751,22.332001 C26.992,20.890001 25.635,19.024001 22.813,18.210001 C20.63,17.583001 18.34,17.841001 16.233,19.411001 C15.234,20.157001 14.547,21.284001 14.22,22.343001 C13.372,25.097001 15.109,27.548001 15.899,28.429001 L17.624,30.275001 C17.98,30.638001 18.835,31.584001 18.418,32.939001 C17.965,34.414001 16.189,35.367001 14.366,34.806001 C13.552,34.554001 12.382,33.949001 12.645,33.097001 C12.753,32.747001 13.003,32.484001 13.138,32.185001 C13.261,31.925001 13.319,31.731001 13.356,31.617001 C13.689,30.529001 13.234,29.115001 12.07,28.756001 C10.983,28.424001 9.873,28.688001 9.442,30.085001 C8.952,31.676001 9.713,34.557001 13.786,35.814001 C18.558,37.281001 22.595,34.681001 23.167,31.293001 C23.528,29.171001 22.568,27.593001 20.813,25.564001 L19.383,23.983001 C18.516,23.116001 18.219,21.641001 19.115,20.508001 C19.872,19.551001 20.949,19.143001 22.716,19.622001 C25.293,20.320001 26.442,22.109001 28.358,23.552001 C27.567,26.147001 27.049,28.752001 26.582,31.090001 L26.295,32.830001 C24.924,40.016001 23.879,43.961001 21.161,46.226001 C20.614,46.617001 19.83,47.199001 18.651,47.240001 C18.032,47.260001 17.833,46.834001 17.823,46.648001 C17.809,46.214001 18.176,46.015001 18.419,45.820001 C18.782,45.621001 19.331,45.293001 19.294,44.242001 C19.253,42.996001 18.223,41.918001 16.735,41.969001 C15.618,42.006001 13.919,43.055001 13.983,44.979001 C14.049,46.963001 15.899,48.452001 18.689,48.356001 C20.181,48.307001 23.511,47.700001 26.792,43.799001 C30.611,39.326001 31.68,34.199001 32.484,30.447001 L33.38,25.494001 C33.879,25.553001 34.411,25.594001 34.991,25.607001 C39.748,25.709001 42.127,23.244001 42.164,21.452001 C42.187,20.367001 41.452,19.300001 40.422,19.324001 C39.686,19.345001 38.76,19.835001 38.538,20.853001 C38.321,21.853001 40.052,22.755001 38.699,23.632001 C37.738,24.255001 36.015,24.693001 33.589,24.337001 L34.031,21.898001 C34.93,17.274001 36.042,11.586001 40.255,11.449001 C40.562,11.433001 41.686,11.463001 41.712,12.205001 C41.719,12.453001 41.658,12.517001 41.368,13.085001 C41.071,13.527001 40.96,13.904001 40.973,14.338001 C41.015,15.518001 41.912,16.294001 43.211,16.248001 C44.948,16.191001 45.448,14.500001 45.42,13.630001 C45.348,11.585001 43.194,10.295001 40.345,10.387001 L40.345,10.387001 Z" id="path16" fill="#FFFFFF"></path>
        </g>
    </g>
</svg>